<svg width="40" height="40" viewBox="0 0 40 40" fill="none" xmlns="http://www.w3.org/2000/svg">
<g clip-path="url(#clip0_2_333)">
<path d="M20 5C20.22 5 20.4383 5 20.655 5C18.5139 6.98951 17.1376 9.6664 16.7655 12.5654C16.3933 15.4643 17.0487 18.4021 18.6179 20.8679C20.187 23.3337 22.5706 25.1717 25.3543 26.0624C28.138 26.9532 31.1459 26.8402 33.855 25.7433C32.8129 28.2508 31.1096 30.4284 28.927 32.0438C26.7443 33.6591 24.1641 34.6517 21.4615 34.9156C18.7589 35.1796 16.0354 34.7049 13.5815 33.5423C11.1275 32.3797 9.03517 30.5728 7.52763 28.3143C6.02009 26.0558 5.1539 23.4305 5.02146 20.7183C4.88901 18.0061 5.49529 15.3088 6.7756 12.9142C8.05592 10.5195 9.96225 8.51737 12.2913 7.12122C14.6203 5.72507 17.2846 4.98732 20 4.98666V5Z" stroke="white" stroke-width="2.75" stroke-linecap="round" stroke-linejoin="round"/>
<path d="M28.3333 6.66666C28.3333 7.55071 28.6845 8.39856 29.3096 9.02368C29.9348 9.6488 30.7826 9.99999 31.6667 9.99999C30.7826 9.99999 29.9348 10.3512 29.3096 10.9763C28.6845 11.6014 28.3333 12.4493 28.3333 13.3333C28.3333 12.4493 27.9821 11.6014 27.357 10.9763C26.7319 10.3512 25.8841 9.99999 25 9.99999C25.8841 9.99999 26.7319 9.6488 27.357 9.02368C27.9821 8.39856 28.3333 7.55071 28.3333 6.66666Z" stroke="white" stroke-width="2.75" stroke-linecap="round" stroke-linejoin="round"/>
<path d="M31.6667 18.3333H35M33.3334 16.6667V20" stroke="white" stroke-width="2.75" stroke-linecap="round" stroke-linejoin="round"/>
</g>
<defs>
<clipPath id="clip0_2_333">
<rect width="40" height="40" fill="white"/>
</clipPath>
</defs>
</svg>
