<svg width="35" height="40" viewBox="0 0 35 40" fill="none" xmlns="http://www.w3.org/2000/svg">
<path d="M33.6167 8.86312L19.1924 0.39299C18.2828 -0.130997 17.0983 -0.130997 16.1814 0.39299L1.60313 8.86312C0.664346 9.40927 0 10.4357 0 11.5337V28.4514C0 29.5494 0.681682 30.5762 1.62047 31.1253L5.4721 33.3377C7.31304 34.2547 7.96365 34.2547 8.80136 34.2547C11.5271 34.2547 13.0841 32.5878 13.0841 29.6804V12.9783C13.0841 12.7424 12.9628 12.3914 12.7338 12.3914H10.8945C10.6616 12.3914 10.1402 12.7424 10.1402 12.9779V29.68C10.1402 30.9688 8.98748 32.2513 6.83318 31.162L2.85332 28.8421C2.71463 28.766 2.61682 28.6129 2.61682 28.4514V11.5337C2.61682 11.3742 2.79836 11.2141 2.93804 11.1324L17.4693 2.67683C17.605 2.5991 17.8045 2.5991 17.94 2.67683L32.2939 11.1304C32.4313 11.2141 32.3829 11.3693 32.3829 11.5337V28.4514C32.3829 28.6129 32.4427 28.77 32.307 28.8477L17.8863 37.3083C17.7627 37.3834 17.6093 37.3834 17.4738 37.3083L13.7753 35.0757C13.6637 35.0102 13.5313 34.9867 13.4243 35.0473C12.3952 35.6371 12.2055 35.7155 11.2402 36.0539C11.0028 36.1376 10.6524 36.2828 11.3743 36.692L16.2148 39.5878C16.6769 39.8578 17.2012 39.9999 17.7349 40C18.272 40 18.7979 39.8591 19.2614 39.5878L33.6164 31.1253C34.5551 30.5722 35 29.5494 35 28.4514V11.5337C35 10.4357 34.5551 9.41192 33.6167 8.86312V8.86312ZM22.2136 25.7706C18.3779 25.7706 17.533 24.7005 17.2514 22.7716C17.2187 22.5639 17.0443 22.3154 16.8353 22.3154H14.9607C14.7288 22.3154 14.5423 22.5999 14.5423 22.8335C14.5423 25.3032 15.87 28.2956 22.2139 28.2956C26.8061 28.2956 29.4389 26.4911 29.4389 23.2976C29.4389 20.1312 27.3236 19.3002 22.87 18.7041C18.3685 18.1024 17.9112 17.7984 17.9112 16.7319C17.9112 15.8526 18.2985 14.6799 21.6316 14.6799C24.6099 14.6799 25.7077 15.3263 26.1594 17.3564C26.198 17.5473 26.3704 17.6842 26.565 17.6842H28.4472C28.5629 17.6842 28.6735 17.6369 28.7546 17.5532C28.8331 17.4633 28.8747 17.3505 28.8642 17.2294C28.5728 13.7335 26.2762 12.1043 21.6313 12.1043C17.4997 12.1043 15.035 13.8688 15.035 16.8265C15.035 20.0346 17.4872 20.9211 21.4534 21.3177C26.198 21.7881 26.567 22.4894 26.567 23.4332C26.567 25.0723 25.2657 25.7706 22.2136 25.7706Z" fill="black"/>
</svg>
