<svg width="80" height="80" viewBox="0 0 80 80" fill="none" xmlns="http://www.w3.org/2000/svg">
<path d="M49.6507 9.66116C49.7907 9.66286 50.0136 9.61044 50.0562 9.6757C50.2341 9.94838 50.4864 9.83294 50.7112 9.8617C50.7796 9.87044 50.8876 9.86591 50.9079 9.90426C51.024 10.1235 51.2234 10.056 51.4008 10.076C51.4661 10.0834 51.5664 10.1056 51.5843 10.1487C51.6451 10.2946 51.759 10.282 51.8757 10.2854C51.91 10.2864 51.9673 10.2865 51.9748 10.3039C52.0861 10.5615 52.3166 10.4754 52.5108 10.5025C52.5691 10.5107 52.6216 10.5669 52.6748 10.6039C52.7187 10.6343 52.7563 10.6902 52.8026 10.6976C52.9345 10.7188 53.0837 10.6724 53.1401 10.8694C53.1508 10.907 53.3081 10.9074 53.3987 10.9165C53.532 10.9299 53.6869 10.8777 53.7531 11.0638C53.7639 11.0941 53.8289 11.1098 53.8717 11.1227C53.9043 11.1325 53.9416 11.1257 53.9766 11.1287C54.2135 11.149 54.3434 11.416 54.597 11.3983C54.6363 11.5761 54.7786 11.5336 54.9021 11.5526C55.0114 11.5693 55.1159 11.621 55.2205 11.6623C55.2923 11.6906 55.3579 11.7449 55.4312 11.7564C55.5377 11.7731 55.6399 11.7706 55.6894 11.8955C55.7024 11.9283 55.762 11.9696 55.7928 11.9642C56.0361 11.922 56.1328 12.1365 56.2702 12.2538C56.3501 12.3219 56.3986 12.3892 56.516 12.3997C56.5933 12.4066 56.6659 12.4752 56.7381 12.5202C56.755 12.5307 56.7653 12.5753 56.7731 12.5738C57.0193 12.5293 57.1362 12.7652 57.3319 12.8303C57.4343 12.8644 57.5714 12.8523 57.6047 13.0077C57.6108 13.0361 57.6797 13.0722 57.7168 13.0693C57.8851 13.056 57.973 13.1478 58.091 13.2568C58.2129 13.3696 58.3236 13.5793 58.5615 13.5129C58.5805 13.5076 58.6171 13.5466 58.6385 13.5711C58.7887 13.7434 58.911 13.9302 59.1903 13.9433C59.2968 13.9482 59.396 14.1206 59.4972 14.218C59.5358 14.2552 59.5728 14.332 59.6069 14.33C59.8888 14.313 60.0022 14.5301 60.1528 14.6998C60.1802 14.7307 60.2359 14.7667 60.2678 14.7585C60.531 14.6911 60.6131 14.9391 60.7527 15.0556C60.9248 15.1993 61.02 15.4131 61.3037 15.4197C61.4134 15.4223 61.5238 15.5862 61.6256 15.6851C61.7201 15.777 61.8032 15.8806 61.8922 15.9783C61.9072 15.9949 61.9246 16.0183 61.9435 16.0211C62.3132 16.0763 62.4894 16.3846 62.7223 16.6167C63.0113 16.9046 63.2946 17.1983 63.5814 17.4886C63.5968 17.5042 63.6216 17.5216 63.6412 17.5206C64.0299 17.5007 64.1591 17.8596 64.3833 18.058C64.7984 18.4254 65.1625 18.8505 65.5491 19.2504C65.5799 19.2822 65.6486 19.3026 65.6512 19.3325C65.6836 19.7053 66.0317 19.8329 66.2308 20.0716C66.5026 20.3977 66.8215 20.6844 67.1185 20.9898C67.1414 21.0134 67.1663 21.0525 67.1631 21.0814C67.1336 21.356 67.3732 21.438 67.5099 21.6001C67.6293 21.7417 67.8285 21.8311 67.8209 22.0851C67.8177 22.1923 67.9665 22.3237 68.0736 22.4102C68.2588 22.5598 68.4461 22.694 68.4468 22.9659C68.4469 22.9989 68.4994 23.0326 68.5293 23.0643C68.6704 23.214 68.8738 23.3167 68.883 23.5648C68.8847 23.6111 68.9425 23.66 68.9825 23.6994C69.1355 23.8501 69.2912 23.9949 69.3328 24.2239C69.3427 24.278 69.4172 24.3175 69.4505 24.3709C69.5555 24.5393 69.7901 24.6279 69.7615 24.8813C69.7579 24.9131 69.8025 24.9556 69.8327 24.985C69.987 25.136 70.148 25.272 70.1832 25.5137C70.1984 25.6184 70.3389 25.7001 70.3741 25.808C70.4093 25.9156 70.3802 26.0406 70.5357 26.0786C70.563 26.0852 70.5896 26.1557 70.5908 26.1974C70.5942 26.3281 70.5877 26.452 70.747 26.5108C70.7807 26.5232 70.7982 26.6088 70.8034 26.6626C70.8134 26.7671 70.7948 26.8781 70.9393 26.9106C70.9656 26.9165 71.0015 26.9588 71.0026 26.9857C71.0099 27.1504 71.1075 27.259 71.185 27.3924C71.2722 27.5426 71.2817 27.7499 71.4349 27.8826C71.3461 28.1622 71.7586 28.268 71.6658 28.549C71.9569 28.6104 71.7511 29.0175 72.0388 29.0897C72.0624 29.0956 72.0515 29.2006 72.075 29.251C72.1928 29.5035 72.3458 29.7447 72.3033 30.0431C72.6076 30.1243 72.4011 30.533 72.6821 30.6393C72.7113 30.6504 72.7011 30.7705 72.706 30.8402C72.7154 30.9738 72.6665 31.1263 72.8539 31.1929C72.889 31.2053 72.9053 31.2896 72.9177 31.3437C72.9617 31.5347 72.8837 31.7667 73.119 31.8942C73.15 31.911 73.143 32.0033 73.1482 32.0612C73.1631 32.2261 73.1022 32.4166 73.324 32.5066C73.3532 32.5185 73.3556 32.6129 73.3585 32.6697C73.3679 32.8509 73.3242 33.0427 73.523 33.1693C73.5642 33.1955 73.5646 33.2982 73.5694 33.3667C73.5807 33.526 73.5597 33.6741 73.7241 33.8028C73.8009 33.8629 73.7673 34.0644 73.7834 34.2019C73.8023 34.363 73.7221 34.5416 73.9383 34.6603C74.0042 34.6964 73.9839 34.8988 73.9935 35.0258C74.007 35.2036 73.9392 35.4013 74.1587 35.518C74.1981 35.5389 74.2019 35.6458 74.2043 35.7137C74.2105 35.8893 74.206 36.0653 74.2071 36.2412C74.2078 36.3567 74.1977 36.4643 74.3298 36.5431C74.3874 36.5776 74.4084 36.7044 74.4128 36.791C74.4243 37.0132 74.4163 37.2363 74.4178 37.459C74.4188 37.5959 74.389 37.7373 74.5635 37.8172C74.6095 37.8383 74.6249 37.9607 74.6268 38.0373C74.6336 38.3185 74.6263 38.6 74.6294 38.8813C74.6313 39.049 74.5803 39.2316 74.7897 39.3395C74.8333 39.362 74.8354 39.4875 74.8364 39.5658C74.8414 39.9292 74.8396 40.2927 74.8396 40.6561C74.8399 42.6609 74.8414 44.6657 74.8379 46.6704C74.8376 46.8556 74.9164 47.072 74.667 47.191C74.6267 47.2102 74.631 47.342 74.6302 47.4219C74.6269 47.7853 74.6309 48.1488 74.6284 48.5122C74.6276 48.6388 74.6383 48.7651 74.5009 48.8537C74.4495 48.8869 74.4261 48.9899 74.4211 49.0633C74.4097 49.2266 74.4241 49.3916 74.4165 49.5554C74.41 49.6943 74.4826 49.8677 74.2608 49.9295C74.2279 49.9387 74.2115 50.0523 74.2092 50.1183C74.2025 50.3174 74.2093 50.5169 74.205 50.7161C74.2035 50.785 74.2075 50.8956 74.1707 50.9153C73.9379 51.0393 74.0065 51.2495 73.9951 51.44C73.9853 51.6029 74.0611 51.7894 73.8259 51.8885C73.7746 51.9101 73.7965 52.1046 73.7843 52.2194C73.7647 52.4026 73.8611 52.6202 73.6086 52.7351C73.5697 52.7528 73.5852 52.8869 73.5732 52.9668C73.5407 53.1812 73.673 53.4427 73.3886 53.5883C73.3592 53.6034 73.3667 53.6969 73.3628 53.7543C73.3512 53.922 73.41 54.1128 73.1865 54.2042C73.1576 54.216 73.1588 54.3109 73.153 54.3681C73.135 54.5465 73.1833 54.7444 72.9756 54.8608C72.9424 54.8793 72.9445 54.968 72.9379 55.025C72.9272 55.1179 72.9455 55.2214 72.9102 55.3024C72.8647 55.4069 72.7553 55.4851 72.7162 55.5905C72.6753 55.7003 72.7409 55.8419 72.5601 55.9023C72.5124 55.9182 72.5112 56.0876 72.4976 56.1877C72.4798 56.3184 72.5364 56.4735 72.3416 56.5342C72.3068 56.5451 72.3018 56.6564 72.2859 56.722C72.2725 56.7776 72.2775 56.8747 72.2503 56.8841C72.017 56.9648 72.0795 57.1559 72.0743 57.3208C72.0706 57.4381 72.0846 57.5535 71.9225 57.592C71.8895 57.5999 71.8714 57.711 71.864 57.7765C71.8534 57.8697 71.8651 57.9606 71.7404 57.9965C71.702 58.0075 71.6619 58.0818 71.6579 58.13C71.6463 58.2705 71.6475 58.3891 71.4949 58.4865C71.4192 58.5348 71.4296 58.7182 71.3651 58.8631C71.2995 58.8917 71.2698 58.8978 71.2121 58.9028C70.9738 58.9431 70.8296 58.7971 70.6738 58.7062C69.9894 58.3064 69.3207 57.8791 68.63 57.4907C68.0097 57.142 67.3702 56.827 66.7351 56.5051C66.3924 56.3314 66.0467 56.1612 65.6926 56.0126C65.1133 55.7697 64.5254 55.5469 63.9421 55.3133C63.4566 55.1189 62.9747 54.9154 62.4871 54.7267C61.9242 54.5088 61.358 54.2995 60.7911 54.0924C60.1677 53.8646 59.5397 53.649 58.9178 53.4172C58.6368 53.3124 58.3487 53.222 58.17 52.9366C57.7372 52.2452 57.298 51.5573 56.8428 50.8806C56.1846 49.9021 55.3152 49.135 54.2907 48.5741C53.7345 48.2696 53.1033 48.1007 52.5024 47.88C52.2184 47.7757 51.9262 47.6936 51.6363 47.604C51.6138 47.602 51.5989 47.5919 51.5279 47.5569C51.3827 47.5108 51.2999 47.4841 51.208 47.4399C51.1862 47.3184 51.1629 47.2144 51.1622 47.1102C51.151 45.4011 51.1367 43.6928 51.0348 41.9851C50.9989 41.3822 51.061 40.7693 51.125 40.1659C51.1666 39.7745 51.0967 39.3724 51.2673 38.988C51.4037 38.6809 51.4261 38.6289 51.7423 38.6858C52.0698 38.7448 52.3904 38.7758 52.706 38.631C52.7676 38.6028 52.843 38.603 52.9125 38.5938C53.1906 38.5569 53.4537 38.4941 53.7154 38.3708C54.3125 38.0897 54.8119 37.694 55.1871 37.163C55.4871 36.7385 55.7331 36.2751 55.9931 35.8233C56.085 35.6637 56.1616 35.4921 56.2211 35.3178C56.3938 34.8113 56.5371 34.2942 56.725 33.7937C56.8879 33.3596 57.0935 32.9421 57.1218 32.4683C57.1252 32.4117 57.1592 32.3576 57.1718 32.3007C57.2141 32.1088 57.2624 31.9175 57.2906 31.7234C57.314 31.5618 57.3086 31.3962 57.3223 31.2329C57.3753 30.6045 57.4346 29.9766 57.4842 29.348C57.527 28.8044 57.4405 28.2691 57.296 27.7515C57.2268 27.5033 57.0793 27.2476 56.8968 27.0662C56.4454 26.6174 55.6128 26.6229 55.1621 26.8747C54.7116 27.1264 54.227 27.2795 53.7215 27.4081C53.6009 26.9254 53.4425 26.4899 53.4323 26.0087C53.4052 24.7395 53.6573 23.4908 53.6699 22.2262C53.6701 22.2032 53.68 22.1804 53.6824 22.1571C53.7375 21.6105 53.8021 21.0645 53.8451 20.5169C53.9364 19.3519 53.7467 18.2057 53.5822 17.0599C53.4909 16.4237 53.3679 15.792 53.2511 15.1598C53.1835 14.7935 53.0834 14.4326 53.0279 14.0648C52.9563 13.5904 52.7445 13.1702 52.5025 12.7779C52.1904 12.2719 51.8038 11.8157 51.3706 11.3989C50.84 10.8884 50.3347 10.3522 49.7484 9.90147C49.6893 9.85597 49.682 9.74288 49.6507 9.66116Z" fill="#DB2626"/>
<path d="M9.12182 59.8536C9.01068 59.7504 8.90747 59.6364 8.7861 59.5471C8.67389 59.4646 8.6051 59.3775 8.6008 59.2318C8.59907 59.1732 8.54004 59.1166 8.50794 59.0586C8.4711 58.992 8.41703 58.9285 8.40322 58.8573C8.38325 58.7544 8.401 58.6422 8.26216 58.6087C8.24324 58.6042 8.21646 58.5811 8.21477 58.5643C8.20075 58.4255 8.21467 58.2789 8.17418 58.149C8.14017 58.0399 8.01088 57.9581 7.98477 57.8495C7.95243 57.715 7.98018 57.5717 7.79589 57.5249C7.77274 57.519 7.78126 57.4164 7.76116 57.364C7.73103 57.2853 7.68991 57.2107 7.65087 57.1358C7.62086 57.0782 7.56486 57.0247 7.5592 56.9657C7.54749 56.8438 7.54364 56.7364 7.39979 56.6859C7.36605 56.6741 7.34784 56.5867 7.34207 56.5321C7.32271 56.3485 7.40637 56.1401 7.16066 56.0212C7.11304 55.9981 7.13684 55.8249 7.13008 55.7207C7.1228 55.6086 7.16083 55.4752 6.99164 55.4443C6.98095 55.4423 6.96197 55.4339 6.96241 55.4304C6.99529 55.171 6.74481 55.0215 6.71299 54.7915C6.68886 54.617 6.74847 54.4373 6.53731 54.3074C6.46788 54.2647 6.50916 54.0451 6.4962 53.9067C6.48225 53.7577 6.56313 53.5779 6.33516 53.4979C6.29368 53.4833 6.29394 53.3296 6.28777 53.2393C6.27789 53.0945 6.29339 52.974 6.13734 52.8528C6.03473 52.7731 6.04576 52.5327 6.02848 52.362C6.01483 52.2271 6.03621 52.1119 5.89577 52.001C5.8149 51.9371 5.82515 51.7419 5.81812 51.6046C5.80927 51.4319 5.82498 51.2747 5.67985 51.1241C5.6013 51.0427 5.6222 50.8609 5.60751 50.7234C5.5897 50.5567 5.63605 50.3861 5.46583 50.2473C5.39725 50.1914 5.40351 50.0295 5.39716 49.9147C5.38684 49.7278 5.39611 49.5398 5.39331 49.3524C5.39145 49.228 5.40378 49.1125 5.28045 49.0081C5.20876 48.9474 5.19477 48.7977 5.18774 48.6859C5.17379 48.4641 5.18532 48.2408 5.18122 48.0182C5.17773 47.8284 5.22391 47.6354 5.03465 47.4786C4.96769 47.4231 4.97501 47.2599 4.97414 47.1457C4.96898 46.466 4.97228 45.7863 4.97036 45.1066C4.97001 44.9834 4.9982 44.8575 4.84655 44.7726C4.78922 44.7405 4.76216 44.6122 4.76156 44.5274C4.75584 43.7188 4.75793 42.9102 4.76074 42.1015C4.76098 42.0331 4.75982 41.9246 4.79812 41.9028C5.04006 41.7646 4.96725 41.5393 4.96914 41.3392C4.97513 40.7065 4.97033 40.0736 4.97627 39.4408C4.97723 39.3389 4.97625 39.1929 5.03748 39.1439C5.21791 38.9994 5.17881 38.8165 5.18191 38.6367C5.18555 38.4258 5.17749 38.2146 5.18743 38.0041C5.19566 37.8297 5.11789 37.6245 5.35283 37.5158C5.38868 37.4992 5.38955 37.388 5.39121 37.3201C5.39605 37.121 5.38611 36.9214 5.39594 36.7227C5.40164 36.6075 5.39432 36.4484 5.46261 36.3883C5.63455 36.237 5.59518 36.0568 5.60464 35.8765C5.61345 35.7088 5.56586 35.5341 5.76378 35.4107C5.82554 35.3721 5.80354 35.1946 5.81432 35.0801C5.83313 34.8804 5.76413 34.6735 5.98878 34.511C6.07227 34.4506 6.03043 34.2267 6.06089 34.0805C6.09127 33.9347 6.01533 33.744 6.24617 33.6697C6.28694 33.6565 6.27391 33.4766 6.28589 33.3737C6.30856 33.1791 6.19871 32.9488 6.46275 32.8178C6.50719 32.7958 6.48719 32.6436 6.49681 32.5516C6.51024 32.4231 6.4466 32.2739 6.64455 32.2047C6.69281 32.1878 6.69519 32.0206 6.70631 31.9212C6.72114 31.7885 6.66546 31.6312 6.8617 31.5759C6.88905 31.5682 6.91261 31.5002 6.91487 31.4588C6.92245 31.3204 6.90727 31.1903 7.08034 31.1139C7.13045 31.0918 7.11947 30.9232 7.12976 30.8211C7.14199 30.6997 7.0932 30.5633 7.26998 30.501C7.3134 30.4857 7.32967 30.3636 7.33921 30.2881C7.35966 30.1264 7.275 29.9295 7.51107 29.8477C7.53597 29.8391 7.54556 29.7662 7.54979 29.722C7.56056 29.6091 7.52919 29.4802 7.69926 29.4493C7.72584 29.4444 7.75467 29.3765 7.75843 29.3355C7.77089 29.1998 7.73611 29.0469 7.93367 29.0052C7.95481 29.0007 7.96554 28.9243 7.97229 28.8799C7.98105 28.8223 7.96175 28.7236 7.98768 28.711C8.26581 28.5763 8.16125 28.3212 8.19377 28.1086C8.19964 28.0703 8.23467 28.0154 8.26727 28.0059C8.38478 27.9715 8.39946 27.8881 8.3958 27.7882C8.39168 27.6758 8.40828 27.5761 8.54325 27.5484C8.55288 27.5464 8.56666 27.5336 8.56758 27.5248C8.58901 27.3173 8.71414 27.1581 8.79685 26.979C8.8595 26.8433 8.92004 26.7245 9.01647 26.6101C9.13379 26.471 9.28138 26.3537 9.27201 26.1238C9.26846 26.0366 9.4114 25.9263 9.47792 25.813C9.64291 25.5322 9.69726 25.1738 10.0036 24.9771C10.0579 24.9423 10.0871 24.8475 10.1005 24.7753C10.1182 24.6803 10.1197 24.5917 10.237 24.5576C10.2698 24.5481 10.3167 24.4869 10.3107 24.4596C10.2671 24.2611 10.4373 24.1871 10.5195 24.0584C10.6059 23.9232 10.7814 23.8515 10.7682 23.6293C10.762 23.5244 10.9231 23.3984 11.0263 23.3009C11.192 23.1443 11.4055 23.0281 11.3896 22.7488C11.3877 22.7156 11.4822 22.6859 11.5043 22.641C11.5888 22.4695 11.8253 22.4115 11.8159 22.1532C11.8119 22.0447 11.9727 21.9204 12.0749 21.8199C12.2365 21.6611 12.412 21.5165 12.5809 21.365C12.5978 21.3499 12.6237 21.3282 12.6222 21.3117C12.5877 20.9362 12.9434 20.8153 13.1156 20.5803C13.3105 20.3144 13.5763 20.1004 13.8113 19.864C13.8428 19.8324 13.8948 19.8065 13.9038 19.7697C13.988 19.428 14.2716 19.2446 14.495 19.0143C14.9531 18.542 15.4038 18.0615 15.8803 17.6084C16.0161 17.4793 16.1295 17.2789 16.3897 17.2995C16.4729 17.3061 16.5839 17.1689 16.6556 17.0769C16.9281 16.727 17.276 16.4536 17.5842 16.1402C17.6081 16.1158 17.6346 16.0735 17.6596 16.0737C18.0152 16.0769 18.1371 15.7412 18.3575 15.5641C18.5554 15.4051 18.7132 15.2067 18.975 15.1429C19.0024 15.1362 19.0211 15.0936 19.0736 15.0381C19.2179 14.9843 19.2875 15.0391 19.3106 15.1443C19.3407 15.2806 19.3732 15.4193 19.3778 15.5579C19.3937 16.0381 19.3887 16.5191 19.4092 16.9991C19.4371 17.6527 19.4964 18.3053 19.5142 18.9591C19.5352 19.7322 19.5115 20.5067 19.5376 21.2796C19.5482 21.5908 19.6254 21.9026 19.6981 22.208C19.7817 22.5596 19.9014 22.9025 19.9917 23.2527C20.0909 23.6375 20.174 24.0263 20.2647 24.4132C20.4565 25.2311 20.6504 26.0485 20.8393 26.867C20.8839 27.0601 20.8826 27.2686 20.9538 27.4499C21.1279 27.8931 21.1934 28.3501 21.2228 28.8207C21.2497 29.2506 21.2688 29.6821 21.4724 30.0848C21.5923 30.3219 21.6523 30.5892 21.7263 30.8676C21.5982 31.5592 21.7346 32.2201 21.7664 32.8831C21.7827 33.2206 21.8693 33.5574 21.8606 33.8928C21.8356 34.8459 22.1141 35.7661 22.1388 36.7127C22.1421 36.8372 22.2006 36.9601 22.2319 37.0841C22.2519 37.1632 22.2737 37.2424 22.2863 37.3228C22.3728 37.8742 22.4509 38.4271 22.5457 38.9771C22.5772 39.1597 22.6603 39.3329 22.702 39.5145C22.7978 39.9322 22.8691 40.356 22.9755 40.7709C23.1082 41.288 23.2661 41.7987 23.4139 42.312C23.43 42.3679 23.4492 42.423 23.4701 42.4773C23.6406 42.9217 23.8107 43.3662 23.9833 43.8098C24.1012 44.1126 24.21 44.4199 24.346 44.7145C24.5795 45.2201 24.8207 45.7228 25.0784 46.2164C25.3094 46.6591 25.5528 47.0968 25.8167 47.5206C26.1181 48.0048 26.4481 48.4711 26.7471 48.9695C26.4399 49.2973 26.172 49.6244 25.8586 49.8997C25.0824 50.5815 24.3805 51.3308 23.7336 52.1335C23.5434 52.3697 23.3829 52.6313 23.1809 52.8561C22.9405 53.1235 22.7059 53.4244 22.4048 53.6031C21.826 53.9466 21.208 54.2271 20.5952 54.5097C19.9918 54.788 19.3774 55.0434 18.7626 55.2962C18.1904 55.5315 17.6142 55.7579 17.0343 55.9735C16.564 56.1485 16.0809 56.2894 15.6118 56.4674C14.9591 56.715 14.3122 56.9783 13.6667 57.244C13.1832 57.443 12.7 57.6444 12.2268 57.8661C11.2265 58.3348 10.335 58.9709 9.4883 59.675C9.38683 59.7594 9.24496 59.7952 9.12182 59.8536Z" fill="#DB2626"/>
<path d="M21.7392 30.843C21.6523 30.5892 21.5923 30.3219 21.4724 30.0848C21.2688 29.6821 21.2497 29.2506 21.2228 28.8207C21.1934 28.3501 21.1279 27.8931 20.9538 27.4499C20.8826 27.2686 20.8839 27.0601 20.8393 26.867C20.6504 26.0485 20.4565 25.2311 20.2647 24.4133C20.174 24.0263 20.0909 23.6375 19.9917 23.2527C19.9014 22.9025 19.7817 22.5596 19.6981 22.208C19.6254 21.9026 19.5482 21.5908 19.5376 21.2796C19.5115 20.5067 19.5352 19.7322 19.5142 18.9591C19.4964 18.3053 19.4371 17.6527 19.4092 16.9991C19.3887 16.5191 19.3937 16.0381 19.3778 15.5579C19.3732 15.4193 19.3407 15.2806 19.3106 15.1443C19.2875 15.0391 19.2179 14.9843 19.0778 15.013C19.0464 14.6191 19.0447 14.2207 19.0319 13.8228C19.0283 13.7094 19.0247 13.5741 18.9643 13.4891C18.8388 13.3123 18.8174 13.1261 18.8221 12.9234C18.8271 12.7126 18.8226 12.5015 18.8237 12.2906C18.8247 12.1056 18.7889 11.9084 18.9848 11.7849C18.9938 11.7792 19.0047 11.7644 19.0032 11.756C18.9385 11.403 19.2473 11.1482 19.2514 10.8094C19.2527 10.7045 19.3217 10.5997 19.3626 10.496C19.3912 10.4232 19.4254 10.3526 19.4558 10.2805C19.5223 10.1226 19.5652 9.94939 19.6581 9.80914C19.9778 9.32634 20.3003 8.84478 20.7639 8.47731C20.8673 8.39531 20.9212 8.25125 20.9997 8.13704C21.0379 8.08156 21.0824 7.98136 21.1205 7.98297C21.3551 7.99284 21.444 7.77974 21.6089 7.68748C21.8819 7.53474 22.1226 7.31406 22.4646 7.31116C22.5364 7.31056 22.6092 7.26022 22.6788 7.22705C22.7575 7.18953 22.8322 7.14344 22.9105 7.10495C22.9807 7.07042 23.0556 7.045 23.1244 7.00806C23.1644 6.98657 23.202 6.92011 23.2314 6.92539C23.5448 6.98152 23.747 6.68798 24.0376 6.67495C24.0905 6.67257 24.16 6.64338 24.1901 6.60297C24.2799 6.4826 24.3983 6.46287 24.5324 6.47126C24.5441 6.47199 24.5576 6.4749 24.5673 6.47041C24.7163 6.40138 24.8588 6.30725 25.0152 6.26808C25.1771 6.22751 25.3308 6.21806 25.4984 6.13979C25.7455 6.02438 25.9697 5.84846 26.2783 5.81597C26.5421 5.78818 26.8045 5.64154 27.0804 5.57294C27.2996 5.51847 27.4866 5.34099 27.6942 5.23009C27.7512 5.19963 27.8312 5.20657 27.9007 5.20615C28.0318 5.20536 28.1562 5.20354 28.2487 5.08314C28.2804 5.04184 28.345 5.00221 28.3945 5.00227C28.6007 5.00254 28.7628 4.91218 28.9457 4.8257C29.2648 4.67486 29.624 4.61009 29.9636 4.50076C30.0829 4.46237 30.1907 4.36526 30.3096 4.35323C30.7043 4.3133 31.0397 4.0348 31.453 4.07963C31.4971 4.08442 31.5545 4.07751 31.5881 4.05239C31.8639 3.84577 32.1828 3.87587 32.4985 3.86814C32.6333 3.86484 32.7669 3.82048 32.9014 3.79681C32.9568 3.78706 33.0132 3.77637 33.069 3.77684C33.7952 3.7829 34.5213 3.79657 35.2474 3.79736C37.6383 3.79998 40.0291 3.79494 42.4199 3.80145C42.7685 3.8024 43.1205 3.82877 43.4642 3.88464C43.662 3.91679 43.8717 3.99758 44.0317 4.11628C44.4261 4.40889 44.9457 4.5096 45.2579 4.92325C45.6217 5.04776 45.8765 5.3151 46.1283 5.58671C46.1598 5.62066 46.2208 5.64423 46.2283 5.68078C46.3066 6.06207 46.6383 6.25985 46.8446 6.5476C46.9933 6.75501 47.1569 6.95744 47.2689 7.18427C47.5031 7.65836 47.9208 7.96804 48.2619 8.34489C48.535 8.64657 48.8369 8.92294 49.135 9.20079C49.2929 9.34787 49.4701 9.47415 49.6446 9.63549C49.682 9.74288 49.6892 9.85597 49.7484 9.90147C50.3347 10.3522 50.84 10.8884 51.3706 11.3989C51.8038 11.8157 52.1903 12.2719 52.5025 12.7779C52.7444 13.1702 52.9562 13.5904 53.0278 14.0648C53.0834 14.4326 53.1835 14.7935 53.2511 15.1598C53.3678 15.792 53.4908 16.4237 53.5821 17.0599C53.7466 18.2057 53.9364 19.3519 53.845 20.5169C53.8021 21.0645 53.7375 21.6105 53.6823 22.1571C53.68 22.1804 53.6701 22.2032 53.6698 22.2262C53.6573 23.4908 53.4052 24.7395 53.4322 26.0087C53.4425 26.4899 53.6008 26.9254 53.708 27.4288C53.655 27.6408 53.635 27.8413 53.5256 27.9572C53.397 28.0934 53.199 28.179 53.0162 28.2458C52.7013 28.3609 52.377 28.4526 52.0525 28.5384C51.8181 28.6004 51.579 28.6596 51.3385 28.6797C50.9424 28.713 50.7918 28.8027 50.6807 29.1674C50.6472 29.2773 50.6416 29.3984 50.6398 29.5147C50.6339 29.9013 50.6457 30.2884 50.6317 30.6747C50.6137 31.1693 50.4695 31.6383 50.3019 32.0999C50.1261 32.5843 49.8573 33.0181 49.5795 33.4494C49.1069 34.1831 48.4999 34.7558 47.6861 35.0912C47.451 35.1881 47.2017 35.2529 46.9722 35.3609C46.5541 35.5576 46.0968 35.599 45.6572 35.6991C45.2963 35.7812 44.9122 35.7782 44.538 35.782C43.5329 35.7923 42.547 35.7405 41.5912 35.3305C40.8237 35.0012 40.256 34.4963 39.8204 33.8114C39.4958 33.3011 39.1641 32.7956 38.9294 32.2329C38.7559 31.8167 38.5062 31.4271 38.3751 30.9997C38.0829 30.0472 36.8987 29.3556 35.9091 29.9677C35.5488 30.1905 35.2609 30.4838 35.1329 30.8826C35.0158 31.2478 34.9775 31.6377 34.8917 32.0139C34.8037 32.4 34.7229 32.7902 34.598 33.1649C34.4364 33.6497 34.2196 34.116 34.0529 34.5993C33.8165 35.2842 33.339 35.7591 32.764 36.1583C32.3107 36.4731 31.8242 36.7139 31.2926 36.8741C30.767 37.0326 30.2499 37.2137 29.694 37.2413C29.3901 37.2564 29.0876 37.3 28.7836 37.3152C28.5507 37.3268 28.316 37.3235 28.0832 37.3095C27.838 37.2948 27.5946 37.2505 27.3494 37.2348C26.7088 37.1935 26.1232 36.9708 25.5538 36.6973C25.4084 36.6275 25.2617 36.5442 25.1439 36.4363C24.8089 36.1297 24.4753 35.8196 24.1654 35.4882C23.5771 34.8591 23.126 34.1478 22.9578 33.2861C22.8976 32.9777 22.8486 32.6672 22.7936 32.3579C22.7814 32.2891 22.7784 32.2149 22.7491 32.1536C22.6186 31.8805 22.5042 31.595 22.3371 31.3455C22.1924 31.1295 22.0287 30.9021 21.7392 30.843ZM25.9289 28.5244C25.5436 28.6604 25.1487 28.7746 24.7749 28.9371C24.0272 29.2624 23.5528 29.8313 23.4428 30.647C23.3789 31.121 23.3827 31.6051 23.3705 32.0849C23.3513 32.8379 23.531 33.5478 23.912 34.195C24.2393 34.751 24.6501 35.2512 25.1427 35.6665C25.4523 35.9275 25.8014 36.1545 26.1624 36.3386C26.6242 36.5742 27.1444 36.6351 27.6552 36.6936C27.98 36.7308 28.3143 36.7738 28.6354 36.7368C29.3772 36.6513 30.1262 36.619 30.8537 36.4086C31.4658 36.2315 32.0388 35.9899 32.5508 35.6128C33.0825 35.2212 33.425 34.7017 33.6501 34.0764C33.9314 33.2952 34.2105 32.5168 34.3832 31.7024C34.4719 31.284 34.4995 30.8663 34.4373 30.4454C34.3761 30.0317 34.2057 29.6658 33.9194 29.3545C33.4682 28.864 32.8641 28.6582 32.2484 28.5364C31.0964 28.3085 29.9251 28.2632 28.7501 28.2745C27.8214 28.2833 26.9019 28.358 25.9289 28.5244ZM47.7954 26.6319C46.848 26.5131 45.8999 26.5604 44.9526 26.6286C44.7557 26.6428 44.5613 26.6963 44.3668 26.7366C43.9549 26.8218 43.5433 26.9083 43.1324 26.998C42.7331 27.0851 42.3261 27.1495 41.9381 27.2731C41.3956 27.446 40.8618 27.6502 40.3351 27.8674C39.7838 28.0947 39.3053 28.431 39.0369 28.9851C38.891 29.2862 38.7359 29.591 38.7833 29.9536C38.883 30.716 39.1238 31.4325 39.4795 32.1084C39.7069 32.5405 39.9789 32.9489 40.2162 33.3761C40.7541 34.3445 41.6081 34.8834 42.6597 35.0836C43.3569 35.2164 44.0708 35.252 44.7921 35.1821C45.7776 35.0867 46.7402 34.9417 47.6272 34.4706C48.0444 34.249 48.4329 33.9836 48.7213 33.6088C49.1043 33.1108 49.4713 32.6044 49.7038 32.005C49.8787 31.554 50.0269 31.1121 50.0508 30.6233C50.0946 29.7271 49.8933 28.8777 49.5951 28.0474C49.4075 27.5253 49.0775 27.1068 48.5484 26.8862C48.3224 26.792 48.0846 26.7263 47.7954 26.6319ZM35.6877 15.5849C35.584 15.6016 35.4806 15.6302 35.3764 15.6333C34.6273 15.6552 33.877 15.7046 33.1291 15.681C32.3978 15.6579 31.6916 15.826 30.9714 15.8754C30.8795 15.8817 30.7891 15.9168 30.6991 15.9422C30.3101 16.0518 29.9212 16.1613 29.533 16.2737C29.1875 16.3738 28.8352 16.4571 28.5001 16.5849C28.0679 16.7498 27.6499 16.9521 27.2255 17.1376C26.8945 17.2823 26.6031 17.4498 26.4039 17.7888C25.9918 18.4904 25.5105 19.1516 25.1022 19.8551C24.8408 20.3054 24.6517 20.7988 24.4448 21.2791C24.344 21.513 24.275 21.7609 24.1944 22.0034C24.1475 22.1449 24.1027 22.2873 24.0634 22.4311C24.0297 22.5546 24.0044 22.6804 23.9768 22.8056C23.9543 22.9074 23.9394 23.0112 23.9116 23.1114C23.7969 23.524 23.6767 23.9351 23.5635 24.348C23.5453 24.4145 23.5567 24.4885 23.5467 24.5579C23.5367 24.6268 23.5224 24.6961 23.5004 24.762C23.3874 25.1024 23.235 25.4343 23.1645 25.783C23.0555 26.3226 22.7899 26.8027 22.6393 27.3253C22.5601 27.6 22.5875 27.6785 22.8755 27.7068C22.9336 27.7125 22.9926 27.7093 23.0512 27.7094C25.2432 27.7131 27.4352 27.7162 29.6272 27.7216C29.7788 27.722 29.933 27.7256 30.0816 27.7519C30.6933 27.8602 31.3075 27.9316 31.9297 27.9288C32.0343 27.9283 32.1516 27.9212 32.2413 27.9634C32.5706 28.1183 32.9197 28.1186 33.2701 28.1372C33.6549 28.1576 34.0384 28.2036 34.4233 28.223C34.8428 28.2442 35.2639 28.2685 35.6828 28.253C36.1138 28.2371 36.5451 28.1894 36.9724 28.1287C37.4419 28.0621 37.9071 27.9648 38.374 27.8805C38.3854 27.8785 38.3976 27.8746 38.4067 27.8679C38.5849 27.7372 38.7898 27.7118 39.0036 27.697C39.1031 27.6901 39.1987 27.6277 39.2961 27.5906C39.3716 27.5618 39.4459 27.5288 39.523 27.5055C39.877 27.3984 40.2343 27.3015 40.5856 27.1865C40.8714 27.0929 41.1455 26.9615 41.4338 26.878C41.7885 26.7753 42.1529 26.706 42.5125 26.6195C42.5805 26.6032 42.6444 26.5705 42.7119 26.552C42.8563 26.5124 43.0002 26.4684 43.1471 26.4418C43.6961 26.3426 44.2466 26.2508 44.7958 26.1524C44.8513 26.1424 44.9007 26.1016 44.9557 26.0841C45.0328 26.0596 45.1133 26.0244 45.1912 26.0269C45.8621 26.049 46.4899 25.739 47.1618 25.7746C47.1731 25.7752 47.1846 25.7691 47.1962 25.7679C47.7763 25.7088 48.3443 25.5374 48.9367 25.5866C49.0267 25.594 49.1238 25.5693 49.2116 25.5408C49.4032 25.4785 49.4373 25.3835 49.3655 25.1913C49.2402 24.8555 49.1168 24.5189 48.9991 24.1804C48.9078 23.9178 48.8254 23.6521 48.7408 23.3872C48.6247 23.0238 48.4666 22.6671 48.4052 22.2946C48.3049 21.6857 48.2684 21.0663 48.204 20.4513C48.1737 20.1614 48.1758 19.8622 48.1 19.5845C48.0248 19.3093 47.8845 19.048 47.7468 18.7947C47.4978 18.3367 47.2776 17.8511 46.9578 17.4461C46.4819 16.8435 45.9426 16.2886 45.4043 15.7389C45.1873 15.5174 44.9181 15.3322 44.643 15.1863C44.2977 15.0031 43.9424 14.8215 43.5389 14.7826C43.4715 14.7762 43.4016 14.7494 43.3422 14.7155C43.128 14.5933 42.9052 14.565 42.6644 14.6157C42.197 14.7143 41.7325 14.8281 41.2469 14.8107C41.0988 14.8053 40.9489 14.8665 40.7988 14.8905C40.546 14.931 40.2929 14.971 40.0388 15.0022C39.772 15.035 39.4875 15.0103 39.2408 15.0965C38.9537 15.1967 38.6712 15.2107 38.3796 15.2205C38.2629 15.2244 38.1448 15.2298 38.0305 15.2514C37.5384 15.3445 37.0519 15.4555 36.5428 15.4466C36.2789 15.442 36.0134 15.5275 35.6877 15.5849Z" fill="#2C2C2C"/>
<path d="M41.8999 74.7917C41.7074 74.8123 41.5149 74.8328 41.2886 74.8342C41.1157 74.6924 41.0741 74.6995 40.9853 74.861C40.9539 74.8613 40.9225 74.8615 40.8618 74.8384C40.6929 74.6923 40.6511 74.6996 40.563 74.8623C39.7875 74.8626 39.012 74.8629 38.1988 74.8406C38.0593 74.6704 38.0004 74.723 37.9597 74.8611C37.9069 74.8614 37.854 74.8618 37.7717 74.8424C37.7112 74.7387 37.6657 74.7307 37.606 74.7965C37.606 74.7965 37.5718 74.7963 37.5555 74.7703C37.5898 74.672 37.6335 74.5932 37.6924 74.5284C37.8723 74.3309 38.1129 74.1662 38.2272 73.9375C38.3629 73.6661 38.5535 73.4624 38.7571 73.2576C39.133 72.8795 39.5109 72.5033 39.8877 72.1262C39.9454 72.0685 40.0113 72.0163 40.0575 71.9504C40.1924 71.758 40.3077 71.5568 40.251 71.3163C40.2586 71.3269 40.2402 71.3083 40.2671 71.3168C40.571 71.2237 40.7809 71.0696 40.7588 70.714C40.8048 70.6537 40.8494 70.6122 40.9231 70.571C40.9988 70.5689 41.0507 70.5791 41.0913 70.5623C41.5441 70.3744 41.8309 70.0075 42.079 69.6099C42.1493 69.4971 42.0284 69.4542 41.9359 69.4097C42.0019 69.3299 42.0642 69.2726 42.1562 69.2186C42.3353 69.2109 42.3961 69.1343 42.362 68.9904C42.3637 68.9946 42.3551 68.9917 42.3841 68.9981C42.5742 68.9944 42.6002 68.8907 42.583 68.7349C42.6534 68.6617 42.7247 68.6114 42.8072 68.5847C42.8842 68.7207 42.9639 68.7541 43.0724 68.6577C43.2731 68.4793 43.4834 68.3111 43.6756 68.1241C44.0769 67.7337 44.4624 67.3269 44.8678 66.9408C45.0774 66.7411 45.3229 66.5794 45.5389 66.3857C45.7983 66.153 46.0426 65.9035 46.2954 65.6633C46.6255 65.3496 46.9589 65.0393 47.2884 64.7249C47.5917 64.4353 47.852 64.0936 48.2633 63.9366C48.3049 63.9207 48.3412 63.8839 48.3728 63.8501C48.6922 63.5088 49.0171 63.1722 49.3231 62.8192C49.3884 62.7438 49.3837 62.6077 49.4158 62.4781C49.543 62.3618 49.6658 62.2669 49.8195 62.179C49.9943 62.2081 50.1076 62.1555 50.1683 62.0262C50.265 61.8197 50.349 61.6072 50.4386 61.3973C50.4972 61.2599 50.547 61.1178 50.617 60.9864C50.7962 60.6497 51.0043 60.327 51.1642 59.9818C51.3796 59.5167 51.3757 59.0162 51.3106 58.518C51.3047 58.4727 51.2146 58.4385 51.1554 58.3763C51.1523 58.3218 51.1574 58.2902 51.1917 58.2524C51.3654 58.1823 51.3196 58.0507 51.3273 57.9401C51.351 57.6029 51.3827 57.2657 51.3906 56.9281C51.4 56.5302 51.3935 56.1317 51.3832 55.7337C51.3724 55.3139 51.2984 54.8886 51.3464 54.4767C51.3888 54.1139 51.3277 53.781 51.2469 53.4456C51.1902 53.21 51.084 52.9624 50.8535 52.855C50.6631 52.7663 50.6295 52.638 50.6252 52.4677C50.6178 52.1806 50.5683 51.8953 50.6896 51.6118C50.8643 51.2036 50.7459 50.7491 50.8891 50.3223C51.0499 49.8429 51.0046 49.317 51.1158 48.8203C51.1795 48.536 51.213 48.2446 51.2839 47.9624C51.3304 47.7772 51.5081 47.7024 51.6312 47.8236C51.7745 47.9645 51.9492 47.9384 52.1006 47.9997C52.3781 48.1123 52.6501 48.2149 52.9456 48.2798C53.2925 48.3561 53.5231 48.7413 53.9525 48.6622C54.0434 48.6454 54.1712 48.8165 54.2785 48.9053C54.3495 48.964 54.4073 49.073 54.4831 49.0853C54.7405 49.1273 54.8835 49.305 55.0424 49.4782C55.1441 49.589 55.2672 49.6817 55.3878 49.7731C55.5255 49.8774 55.7262 49.9397 55.8034 50.0751C56.0947 50.586 56.6004 50.9294 56.8497 51.4732C56.9642 51.723 57.1508 51.9406 57.3104 52.1688C57.5025 52.4435 57.7014 52.7135 57.8955 52.9868C57.9151 53.0144 57.9227 53.0506 57.9351 53.0832C58.1007 53.518 58.2836 53.6321 58.7112 53.5679C58.7987 53.6437 58.8973 53.7922 58.9705 53.7806C59.2082 53.7429 59.3762 53.8202 59.5776 53.9355C59.7159 54.0146 59.8974 54.0115 60.0078 54.1737C60.0392 54.2198 60.1557 54.2189 60.2334 54.2195C60.3119 54.2201 60.3906 54.1958 60.4741 54.1816C60.564 54.3162 60.6361 54.4843 60.8252 54.4182C61.0531 54.3386 61.179 54.4346 61.2453 54.6138C61.3788 54.6369 61.5429 54.6185 61.5841 54.681C61.7262 54.8964 61.9074 54.8735 62.1645 54.8006C62.2073 54.8631 62.2455 54.9838 62.3168 55.0084C62.4398 55.0509 62.5887 55.0136 62.717 55.047C62.8536 55.0825 62.8859 55.2584 63.0773 55.2843C63.3261 55.3181 63.5311 55.5602 63.8219 55.495C63.828 55.4937 63.8385 55.51 63.8464 55.5184C64.0231 55.7058 64.3396 55.6555 64.4881 55.8952C64.5015 55.9167 64.5599 55.9317 64.5855 55.9211C64.8857 55.797 65.0985 56.0413 65.2974 56.1533C65.7427 56.404 66.18 56.6525 66.6725 56.8006C66.8144 56.8433 66.9416 56.9378 67.0723 57.014C67.2924 57.1423 67.5083 57.2779 67.7292 57.4045C67.8198 57.4564 67.9231 57.4863 68.0139 57.5379C68.4291 57.7739 68.855 57.9942 69.2522 58.2578C69.707 58.5597 70.2556 58.6974 70.6612 59.085C70.7274 59.1482 70.8566 59.1454 70.9567 59.1731C70.9399 59.2083 70.9231 59.2435 70.8782 59.2992C70.7675 59.3482 70.7528 59.3924 70.819 59.4552C70.4657 60.2698 69.8717 60.8814 69.1267 61.4162C68.9383 61.4293 68.9169 61.5239 68.9182 61.636C68.7921 61.7469 68.666 61.8578 68.4931 61.9793C68.3051 61.9922 68.2836 62.0868 68.285 62.1989C68.0909 62.3803 67.9058 62.5726 67.7011 62.741C66.9848 63.3302 66.2619 63.9116 65.5408 64.495C65.4425 64.5745 65.3397 64.6486 65.1886 64.7294C64.9549 64.7376 64.9032 64.851 64.9077 65.011C64.007 65.6668 63.1065 66.3229 62.205 66.9776C62.1395 67.0252 62.0662 67.0622 61.9475 67.1142C61.8408 67.1315 61.7722 67.1211 61.7275 67.149C61.4425 67.3266 61.1571 67.5048 60.8845 67.7004C60.7985 67.7621 60.7513 67.8779 60.6863 67.9689C60.5149 68.0839 60.3435 68.1988 60.1349 68.3034C60.0594 68.326 60.0211 68.3589 59.9828 68.3917C59.858 68.4831 59.7332 68.5744 59.5716 68.6554C59.4965 68.6779 59.4583 68.7107 59.42 68.7436C59.3645 68.7884 59.3089 68.8333 59.2182 68.8671C59.1447 68.8889 59.1065 68.9218 59.0682 68.9546C59.0127 68.9995 58.9571 69.0444 58.8664 69.0782C58.7929 69.1 58.7546 69.1329 58.7163 69.1657C58.5433 69.2803 58.3761 69.4052 58.1959 69.5072C57.8507 69.7027 57.4981 69.8852 57.1104 70.0627C57.034 70.0849 56.9957 70.1176 56.9573 70.1502C56.9573 70.1502 56.9569 70.1495 56.931 70.1503C56.7255 70.1931 56.5336 70.2157 56.4644 70.4313C56.0591 70.6399 55.6538 70.8486 55.2077 71.0455C54.99 71.0381 54.8387 71.084 54.7758 71.2739C54.4649 71.4129 54.1539 71.552 53.8042 71.6809C53.727 71.7032 53.6886 71.7357 53.6501 71.7681C53.0818 72.0022 52.5136 72.2363 51.9022 72.4547C51.6898 72.3813 51.5877 72.4474 51.5392 72.6125C51.4846 72.6358 51.43 72.6591 51.3392 72.669C51.2644 72.6876 51.2259 72.7195 51.1874 72.7515C51.0636 72.7985 50.9398 72.8455 50.7733 72.8761C50.6974 72.852 50.6594 72.8298 50.6315 72.8388C50.1781 72.9857 49.7246 73.1322 49.2752 73.2906C49.1991 73.3173 49.1423 73.3987 49.0767 73.4549C48.977 73.479 48.8773 73.5031 48.7337 73.5102C48.4093 73.5663 48.1282 73.6378 47.8491 73.7158C47.8292 73.7214 47.8228 73.7753 47.8102 73.8068C47.779 73.8074 47.7479 73.8081 47.6805 73.7951C47.6057 73.8134 47.5672 73.8453 47.5287 73.8772C47.4975 73.8778 47.4664 73.8784 47.3969 73.8633C47.2456 73.7859 47.1967 73.8404 47.1769 73.9476C47.0771 73.9715 46.9773 73.9953 46.8319 74.0109C46.6896 73.9524 46.6277 73.972 46.614 74.0883C46.5828 74.0889 46.5516 74.0895 46.482 74.0742C46.3308 73.997 46.282 74.0517 46.2622 74.1587C46.2311 74.1593 46.1999 74.1599 46.1304 74.1447C45.9791 74.0674 45.9302 74.1219 45.9104 74.229C45.8793 74.2297 45.8481 74.2303 45.7786 74.2151C45.6273 74.1377 45.5784 74.1923 45.5586 74.2994C45.5275 74.2999 45.4964 74.3005 45.4204 74.2915C45.2652 74.2283 45.1665 74.2059 45.1364 74.37C45.1246 74.3701 45.1128 74.3702 45.0664 74.3537C44.912 74.2816 44.8182 74.2887 44.7846 74.4401C44.7534 74.4405 44.7221 74.4409 44.6447 74.4313C44.4738 74.3737 44.3455 74.3135 44.2921 74.5105C44.2609 74.5109 44.2296 74.5113 44.1521 74.5017C43.9813 74.4441 43.853 74.3839 43.7996 74.5809C43.7218 74.6022 43.644 74.6235 43.5372 74.6254C43.4048 74.4589 43.3467 74.5136 43.3071 74.651C43.2322 74.6518 43.1573 74.6525 43.0362 74.6361C42.8599 74.5768 42.7279 74.5293 42.6738 74.7216C42.5761 74.722 42.4784 74.7225 42.3276 74.7124C42.132 74.6586 41.9784 74.5686 41.8999 74.7917Z" fill="#2C2C2C"/>
<path d="M9.12134 59.8804C9.24498 59.7952 9.38685 59.7594 9.48832 59.675C10.335 58.9709 11.2265 58.3348 12.2268 57.8661C12.7 57.6444 13.1832 57.443 13.6667 57.244C14.3123 56.9783 14.9592 56.715 15.6118 56.4674C16.0809 56.2894 16.564 56.1485 17.0343 55.9735C17.6142 55.7579 18.1904 55.5315 18.7626 55.2962C19.3774 55.0434 19.9918 54.788 20.5952 54.5097C21.208 54.2271 21.826 53.9466 22.4048 53.6031C22.7059 53.4244 22.9405 53.1235 23.1809 52.8561C23.3829 52.6313 23.5434 52.3697 23.7337 52.1335C24.3805 51.3308 25.0824 50.5815 25.8586 49.8997C26.172 49.6244 26.4399 49.2973 26.7637 48.9794C26.8367 48.9554 26.8745 48.9457 26.9335 48.9551C27.0815 49.0548 27.2343 49.1124 27.3298 49.2207C27.5839 49.5088 27.8262 49.8097 28.0464 50.1242C28.1417 50.2604 28.2028 50.4387 28.2238 50.6049C28.2618 50.906 28.258 51.2125 28.2718 51.5167C28.3 52.1369 28.3213 52.7576 28.3591 53.3772C28.3798 53.7152 28.4378 54.0508 28.4596 54.3887C28.4674 54.5095 28.4504 54.6534 28.3898 54.7535C28.0821 55.2614 27.8775 55.7991 27.839 56.3958C27.8322 56.5006 27.8059 56.604 27.7918 56.7085C27.742 57.0784 27.6691 57.4474 27.651 57.8189C27.6295 58.263 27.6252 58.7123 27.6691 59.1539C27.7127 59.5929 27.7557 60.0543 27.9228 60.4541C28.2443 61.2237 28.66 61.9536 29.0234 62.7064C29.2201 63.1139 29.4037 63.5291 29.5679 63.9507C29.7914 64.5241 30.0283 65.0895 30.3422 65.6202C30.5373 65.9501 30.7431 66.2727 30.9547 66.5921C31.1285 66.8542 31.2551 67.1615 31.4385 67.43C32.1158 68.4214 32.758 69.4388 33.475 70.4004C34.3045 71.5129 35.1999 72.5762 36.065 73.6622C36.3481 74.0176 36.626 74.3772 36.9062 74.7348C36.815 74.7492 36.7215 74.7842 36.633 74.7745C36.1117 74.7176 35.592 74.6469 35.071 74.5869C33.9676 74.46 32.873 74.2762 31.8008 73.9897C30.5922 73.6669 29.3797 73.3468 28.1964 72.9445C27.0791 72.5647 25.9935 72.0895 24.9019 71.6371C24.3183 71.3953 23.7434 71.129 23.179 70.845C22.5098 70.5083 21.8514 70.1493 21.1967 69.7848C19.7639 68.987 18.3768 68.1128 17.0363 67.1702C15.9659 66.4177 14.9254 65.6219 13.8878 64.8242C13.1474 64.255 12.4287 63.6572 11.7103 63.0602C11.2791 62.7018 10.8682 62.319 10.4459 61.9499C10.2306 61.7617 10.0942 61.5266 9.95899 61.2754C9.77746 60.9382 9.52467 60.64 9.31464 60.3171C9.23299 60.1916 9.18446 60.0445 9.12134 59.8804Z" fill="#2C2C2C"/>
<path d="M36.9266 74.7335C36.626 74.3772 36.3481 74.0176 36.065 73.6622C35.1999 72.5762 34.3045 71.5129 33.475 70.4004C32.7579 69.4388 32.1157 68.4214 31.4385 67.43C31.2551 67.1615 31.1285 66.8542 30.9547 66.592C30.743 66.2727 30.5373 65.9501 30.3422 65.6202C30.0283 65.0895 29.7914 64.5241 29.5679 63.9507C29.4036 63.5291 29.2201 63.1139 29.0233 62.7064C28.6599 61.9536 28.2443 61.2237 27.9227 60.4541C27.7557 60.0543 27.7127 59.5929 27.669 59.1539C27.6252 58.7123 27.6295 58.263 27.651 57.8189C27.6691 57.4474 27.742 57.0784 27.7918 56.7085C27.8059 56.604 27.8322 56.5006 27.8389 56.3958C27.8774 55.799 28.0821 55.2614 28.3898 54.7535C28.4504 54.6534 28.4674 54.5095 28.4596 54.3887C28.4377 54.0508 28.3797 53.7152 28.3591 53.3772C28.3213 52.7576 28.2999 52.1369 28.2718 51.5167C28.258 51.2125 28.2617 50.906 28.2237 50.6049C28.2028 50.4387 28.1417 50.2604 28.0464 50.1242C27.8262 49.8097 27.5838 49.5088 27.3297 49.2206C27.2343 49.1124 27.0814 49.0548 26.9327 48.939C26.9139 48.8718 26.9172 48.8397 26.945 48.8163C27.2232 48.9153 27.4554 49.02 27.6142 49.2672C27.756 49.4879 27.9619 49.6666 28.1165 49.8804C28.2085 50.0077 28.2938 50.1617 28.316 50.3133C28.3663 50.6579 28.3757 51.0083 28.3969 51.3849C28.4144 51.5374 28.4366 51.6615 28.4602 51.8084C28.4633 51.8615 28.465 51.8919 28.4609 51.9475C28.476 52.0512 28.4969 52.1297 28.5197 52.241C28.5296 52.5302 28.5412 52.7864 28.5449 53.0428C28.5538 53.6477 28.559 54.2527 28.5465 54.868C28.4821 54.95 28.4369 55.0216 28.3821 55.1118C28.3398 55.2142 28.3225 55.3092 28.2713 55.3796C28.1333 55.5698 28.0984 55.7814 28.0874 56.0231C28.0414 56.1492 28.0133 56.259 27.9791 56.3979C27.9451 56.803 27.9172 57.1788 27.8727 57.5714C27.8495 57.6494 27.8429 57.7106 27.8338 57.8041C27.8648 58.4854 27.8926 59.1347 27.9358 59.7831C27.9464 59.942 27.9937 60.1024 28.0478 60.2537C28.1546 60.5524 28.2778 60.8453 28.3945 61.1634C28.4517 61.2504 28.5088 61.3147 28.5709 61.4018C28.5858 61.4707 28.5956 61.5166 28.6056 61.5854C28.6628 61.6723 28.7198 61.7363 28.7834 61.8235C28.8676 62.012 28.9397 62.1802 29.0239 62.3422C29.2596 62.7957 29.531 63.2314 29.6634 63.7337C29.722 63.956 29.8079 64.171 29.883 64.3888C29.8942 64.4214 29.9138 64.4511 29.9298 64.482C30.1119 64.8334 30.2844 65.1903 30.4792 65.5345C30.6438 65.8254 30.7791 66.1398 31.0609 66.3837C31.1 66.4912 31.1164 66.5803 31.153 66.6601C31.1775 66.7136 31.2307 66.7539 31.2818 66.824C31.4991 67.1822 31.6815 67.5273 31.9327 67.8386C32.2506 68.2326 32.5016 68.6802 32.7877 69.1004C33.126 69.5971 33.468 70.0913 33.8145 70.5822C33.921 70.7331 34.0529 70.8657 34.1643 71.0134C34.4444 71.3849 34.7054 71.7717 35.0001 72.1311C35.4106 72.6319 35.8514 73.1078 36.2665 73.605C36.4974 73.8815 36.7025 74.1795 36.9496 74.5082C37.039 74.4425 37.1483 74.3866 37.2251 74.3013C37.5671 73.9216 37.8959 73.53 38.2376 73.15C38.4168 72.9507 38.6229 72.7752 38.7994 72.5737C39.2277 72.0845 39.6362 71.5779 40.0705 71.0942C40.5303 70.5822 41.0128 70.0906 41.4812 69.5863C41.7665 69.279 42.032 68.9524 42.3284 68.6567C42.6343 68.3516 42.9681 68.0746 43.2874 67.7828C43.5374 67.5542 43.784 67.3219 44.0319 67.091C44.3721 66.7739 44.7093 66.4535 45.0529 66.14C45.647 65.5978 46.2479 65.0629 46.8406 64.5192C47.459 63.9521 48.0692 63.3759 48.6872 62.8084C48.8669 62.6434 49.0722 62.5055 49.2463 62.3354C49.4275 62.1584 49.6145 61.9755 49.7466 61.7627C49.9723 61.3991 50.1612 61.0122 50.3583 60.6312C50.6036 60.1567 50.853 59.6825 50.8664 59.1285C50.868 59.0588 50.8712 58.9838 50.8971 58.9209C51.087 58.4602 50.9346 57.9964 50.9214 57.5332C50.8997 56.7737 50.8357 56.009 50.8982 55.2556C50.9446 54.6949 50.8578 54.1618 50.7828 53.6234C50.7571 53.4388 50.6117 53.2056 50.4533 53.1199C50.2102 52.9884 50.1466 52.8212 50.1511 52.5845C50.1547 52.3971 50.1516 52.2085 50.1722 52.0228C50.2067 51.7114 50.2855 51.4068 50.3464 51.1011C50.4479 50.5918 50.4831 50.0673 50.5587 49.5501C50.6475 48.9427 50.741 48.333 50.8235 47.7231C50.8377 47.618 50.8109 47.4727 50.9866 47.4557C51.0204 47.4735 51.047 47.4834 51.0733 47.5243C51.0296 47.7122 50.9713 47.8666 50.9456 48.0263C50.8677 48.5096 50.798 48.9943 50.7333 49.4795C50.6394 50.1847 50.5561 50.8914 50.4603 51.5963C50.437 51.7679 50.3938 51.9388 50.3404 52.1038C50.2101 52.5061 50.2846 52.7285 50.6312 53.0012C50.7382 53.0855 50.8511 53.1947 50.8979 53.3168C51.0225 53.6417 51.1391 53.9715 51.1301 54.3324C51.1182 54.8115 51.1205 55.2911 51.1256 55.7704C51.1343 56.5999 51.1498 57.4292 51.1625 58.2586C51.1573 58.2902 51.1522 58.3218 51.1468 58.4077C51.1219 58.7755 51.1467 59.1032 51.0619 59.3995C50.8994 59.9673 50.678 60.5156 50.366 61.0274C50.1442 61.3911 49.979 61.7893 49.7885 62.1721C49.6657 62.2669 49.543 62.3618 49.3909 62.485C49.0646 62.773 48.7632 63.0275 48.4718 63.293C47.6196 64.0698 46.7724 64.8521 45.9214 65.6301C45.1482 66.3369 44.3689 67.0369 43.6 67.7482C43.3205 68.0068 43.0634 68.2895 42.796 68.5612C42.7247 68.6114 42.6533 68.6617 42.5578 68.7399C42.4741 68.8426 42.4146 68.9171 42.355 68.9917C42.355 68.9917 42.3636 68.9946 42.3373 68.9919C42.2495 69.0647 42.188 69.14 42.1265 69.2154C42.0642 69.2726 42.0019 69.3299 41.9134 69.4145C41.6004 69.7397 41.3109 70.035 41.0292 70.3375C40.9695 70.4016 40.9384 70.4923 40.894 70.5708C40.8494 70.6122 40.8047 70.6537 40.7353 70.7241C40.5538 70.9381 40.397 71.1232 40.2402 71.3084C40.2402 71.3084 40.2585 71.3269 40.2272 71.3183C40.1669 71.3289 40.1319 71.3428 40.1098 71.3681C39.6999 71.8385 39.2969 72.3151 38.8813 72.7804C38.4723 73.2383 38.0439 73.6789 37.6383 74.1396C37.4721 74.3285 37.3432 74.5502 37.1973 74.757C37.1139 74.7488 37.0305 74.7405 36.9266 74.7335Z" fill="#A4A3A3"/>
<path d="M51.1917 58.2524C51.1498 57.4292 51.1343 56.5999 51.1256 55.7704C51.1205 55.2911 51.1182 54.8115 51.1301 54.3324C51.1391 53.9715 51.0225 53.6417 50.8979 53.3168C50.8511 53.1947 50.7382 53.0855 50.6312 53.0012C50.2846 52.7285 50.2101 52.5061 50.3404 52.1038C50.3938 51.9388 50.437 51.7679 50.4603 51.5963C50.5561 50.8914 50.6394 50.1847 50.7333 49.4795C50.798 48.9943 50.8677 48.5096 50.9456 48.0263C50.9713 47.8666 51.0296 47.7122 51.0914 47.5283C51.1456 47.4866 51.1813 47.472 51.217 47.4573C51.2998 47.484 51.3827 47.5108 51.5241 47.5471C51.601 47.5716 51.6193 47.5865 51.6377 47.6014C51.9261 47.6936 52.2183 47.7757 52.5023 47.88C53.1032 48.1006 53.7345 48.2695 54.2906 48.5741C55.3151 49.135 56.1846 49.9021 56.8428 50.8806C57.298 51.5573 57.7372 52.2452 58.1699 52.9366C58.3486 53.222 58.6367 53.3124 58.9177 53.4172C59.5397 53.6489 60.1676 53.8646 60.7911 54.0924C61.358 54.2995 61.9242 54.5088 62.487 54.7266C62.9747 54.9154 63.4566 55.1189 63.9421 55.3133C64.5254 55.5469 65.1132 55.7696 65.6926 56.0126C66.0467 56.1611 66.3924 56.3314 66.7351 56.5051C67.3702 56.827 68.0097 57.142 68.63 57.4907C69.3207 57.879 69.9893 58.3064 70.6738 58.7062C70.8295 58.7971 70.9738 58.943 71.2121 58.9246C71.2399 58.9767 71.2397 59.0059 71.2396 59.035C71.1536 59.0673 71.0675 59.0995 70.9691 59.1524C70.8566 59.1454 70.7273 59.1483 70.6612 59.085C70.2555 58.6974 69.7069 58.5597 69.2521 58.2578C68.855 57.9942 68.429 57.7739 68.0138 57.5379C67.923 57.4863 67.8198 57.4564 67.7292 57.4045C67.5082 57.2779 67.2923 57.1424 67.0723 57.0141C66.9415 56.9378 66.8143 56.8433 66.6724 56.8006C66.1799 56.6525 65.7427 56.404 65.2973 56.1533C65.0984 56.0413 64.8857 55.797 64.5855 55.9211C64.5599 55.9317 64.5015 55.9167 64.4881 55.8952C64.3396 55.6555 64.0231 55.7058 63.8464 55.5184C63.8384 55.51 63.828 55.4937 63.8219 55.495C63.5311 55.5602 63.3261 55.3181 63.0772 55.2843C62.8859 55.2584 62.8535 55.0825 62.717 55.047C62.5886 55.0136 62.4398 55.0509 62.3167 55.0085C62.2454 54.9838 62.2072 54.8631 62.1644 54.8006C61.9074 54.8735 61.7261 54.8964 61.5841 54.681C61.5429 54.6185 61.3788 54.6369 61.2453 54.6138C61.1789 54.4346 61.053 54.3386 60.8251 54.4183C60.6361 54.4843 60.5639 54.3162 60.474 54.1816C60.3905 54.1958 60.3118 54.2201 60.2333 54.2195C60.1557 54.2189 60.0391 54.2198 60.0077 54.1738C59.8974 54.0115 59.7158 54.0146 59.5776 53.9355C59.3762 53.8202 59.2081 53.7429 58.9704 53.7806C58.8973 53.7922 58.7987 53.6437 58.7111 53.5679C58.2835 53.6321 58.1007 53.518 57.9351 53.0832C57.9227 53.0506 57.915 53.0144 57.8954 52.9868C57.7013 52.7135 57.5025 52.4435 57.3104 52.1688C57.1507 51.9406 56.9642 51.723 56.8496 51.4732C56.6003 50.9294 56.0947 50.586 55.8034 50.0751C55.7262 49.9397 55.5254 49.8774 55.3878 49.7731C55.2672 49.6817 55.144 49.589 55.0424 49.4782C54.8834 49.305 54.7405 49.1273 54.4831 49.0854C54.4073 49.073 54.3494 48.964 54.2784 48.9053C54.1711 48.8165 54.0434 48.6454 53.9524 48.6622C53.523 48.7413 53.2925 48.3561 52.9455 48.2799C52.6501 48.2149 52.3781 48.1123 52.1005 47.9997C51.9492 47.9384 51.7744 47.9645 51.6312 47.8236C51.508 47.7024 51.3303 47.7772 51.2838 47.9624C51.2129 48.2446 51.1794 48.536 51.1158 48.8203C51.0045 49.317 51.0498 49.8429 50.889 50.3223C50.7459 50.7491 50.8642 51.2036 50.6896 51.6118C50.5683 51.8953 50.6178 52.1806 50.6251 52.4677C50.6295 52.638 50.6631 52.7663 50.8534 52.855C51.084 52.9624 51.1901 53.21 51.2469 53.4456C51.3276 53.7811 51.3887 54.1139 51.3464 54.4767C51.2983 54.8886 51.3724 55.3139 51.3832 55.7337C51.3934 56.1317 51.3999 56.5302 51.3906 56.9281C51.3827 57.2657 51.351 57.6029 51.3273 57.9401C51.3195 58.0507 51.3654 58.1823 51.1917 58.2524Z" fill="#2C2C2C"/>
<path d="M37.2305 74.7679C37.3432 74.5503 37.4721 74.3285 37.6384 74.1396C38.044 73.6789 38.4724 73.2383 38.8813 72.7805C39.297 72.3151 39.7 71.8385 40.1099 71.3681C40.1319 71.3428 40.1669 71.3289 40.2197 71.3077C40.3077 71.5568 40.1924 71.7581 40.0575 71.9504C40.0113 72.0163 39.9454 72.0685 39.8877 72.1262C39.5109 72.5034 39.133 72.8795 38.7571 73.2576C38.5535 73.4624 38.3629 73.6662 38.2272 73.9375C38.1129 74.1662 37.8723 74.331 37.6924 74.5285C37.6335 74.5932 37.5898 74.672 37.5384 74.7697C37.4463 74.7896 37.3549 74.7842 37.2305 74.7679Z" fill="#2C2C2C"/>
<path d="M49.1032 73.4516C49.1424 73.3987 49.1991 73.3173 49.2752 73.2906C49.7246 73.1322 50.1781 72.9857 50.6315 72.8388C50.6594 72.8298 50.6974 72.852 50.748 72.8768C50.3866 73.0308 50.0088 73.1709 49.6284 73.3032C49.4651 73.3599 49.2961 73.4004 49.1032 73.4516Z" fill="#2C2C2C"/>
<path d="M60.7107 67.9652C60.7513 67.8779 60.7985 67.7621 60.8845 67.7004C61.1571 67.5048 61.4424 67.3266 61.7275 67.149C61.7722 67.1211 61.8408 67.1316 61.9255 67.1241C61.5467 67.4032 61.1409 67.6823 60.7107 67.9652Z" fill="#2C2C2C"/>
<path d="M47.8371 73.8034C47.8228 73.7754 47.8292 73.7214 47.849 73.7158C48.1282 73.6378 48.4093 73.5663 48.7075 73.5105C48.4382 73.6185 48.1511 73.7092 47.8371 73.8034Z" fill="#2C2C2C"/>
<path d="M71.2552 59.0528C71.2398 59.0059 71.24 58.9767 71.2402 58.9257C71.2698 58.8978 71.2995 58.8917 71.3519 58.8868C71.4551 58.9605 71.5335 59.0354 71.6164 59.1048C71.6686 59.1485 71.7275 59.1841 71.7834 59.2234C71.7692 59.2496 71.755 59.2759 71.7407 59.3021C71.5841 59.2249 71.4275 59.1478 71.2552 59.0528Z" fill="#2C2C2C"/>
<path d="M56.4889 70.4279C56.5336 70.2158 56.7255 70.1932 56.9313 70.1505C56.8095 70.2415 56.6614 70.333 56.4889 70.4279Z" fill="#2C2C2C"/>
<path d="M54.8 71.2712C54.8387 71.0841 54.99 71.0382 55.1825 71.0492C55.0735 71.1325 54.9488 71.2005 54.8 71.2712Z" fill="#2C2C2C"/>
<path d="M51.564 72.6118C51.5876 72.4474 51.6897 72.3813 51.8753 72.4558C51.7907 72.5188 51.6898 72.565 51.564 72.6118Z" fill="#2C2C2C"/>
<path d="M41.9281 74.7922C41.9784 74.5686 42.132 74.6586 42.2983 74.7124C42.2002 74.7462 42.0782 74.7694 41.9281 74.7922Z" fill="#2C2C2C"/>
<path d="M42.7008 74.722C42.7279 74.5293 42.8599 74.5768 43.0081 74.6363C42.9267 74.6766 42.8272 74.6995 42.7008 74.722Z" fill="#2C2C2C"/>
<path d="M64.9276 65.0011C64.9032 64.851 64.9548 64.7376 65.1645 64.733C65.1097 64.8187 65.0286 64.9049 64.9276 65.0011Z" fill="#2C2C2C"/>
<path d="M44.3191 74.511C44.3455 74.3135 44.4738 74.3737 44.6212 74.4314C44.5447 74.4648 44.4454 74.4881 44.3191 74.511Z" fill="#2C2C2C"/>
<path d="M43.8265 74.5813C43.8529 74.3839 43.9813 74.4441 44.1287 74.5018C44.0521 74.5352 43.9528 74.5585 43.8265 74.5813Z" fill="#2C2C2C"/>
<path d="M40.5911 74.8628C40.651 74.6996 40.6929 74.6923 40.8383 74.8381C40.7691 74.8618 40.6941 74.8625 40.5911 74.8628Z" fill="#2C2C2C"/>
<path d="M41.0134 74.8618C41.074 74.6995 41.1157 74.6924 41.2605 74.838C41.1913 74.8615 41.1164 74.862 41.0134 74.8618Z" fill="#2C2C2C"/>
<path d="M44.8091 74.4402C44.8182 74.2887 44.912 74.2816 45.0486 74.3537C44.9882 74.3936 44.911 74.4169 44.8091 74.4402Z" fill="#2C2C2C"/>
<path d="M45.1619 74.3703C45.1665 74.206 45.2652 74.2283 45.397 74.2917C45.3415 74.3245 45.2644 74.3476 45.1619 74.3703Z" fill="#2C2C2C"/>
<path d="M68.9376 61.6261C68.9169 61.5239 68.9383 61.4293 69.1052 61.4263C69.0729 61.4891 69.0149 61.5526 68.9376 61.6261Z" fill="#2C2C2C"/>
<path d="M68.3043 62.189C68.2836 62.0868 68.3051 61.9923 68.4719 61.9892C68.4397 62.052 68.3817 62.1155 68.3043 62.189Z" fill="#2C2C2C"/>
<path d="M37.9861 74.8619C38.0004 74.723 38.0593 74.6704 38.1658 74.8402C38.1179 74.8624 38.0651 74.8625 37.9861 74.8619Z" fill="#2C2C2C"/>
<path d="M47.2003 73.9477C47.1967 73.8405 47.2456 73.7859 47.3735 73.8637C47.3336 73.9025 47.2787 73.9252 47.2003 73.9477Z" fill="#2C2C2C"/>
<path d="M46.2856 74.1588C46.282 74.0517 46.3307 73.9971 46.4586 74.0746C46.4188 74.1134 46.3639 74.1361 46.2856 74.1588Z" fill="#2C2C2C"/>
<path d="M45.9338 74.2292C45.9302 74.1219 45.979 74.0674 46.107 74.1451C46.0671 74.1839 46.0122 74.2066 45.9338 74.2292Z" fill="#2C2C2C"/>
<path d="M45.582 74.2995C45.5784 74.1923 45.6272 74.1377 45.7552 74.2154C45.7153 74.2543 45.6603 74.2769 45.582 74.2995Z" fill="#2C2C2C"/>
<path d="M43.3334 74.6514C43.3466 74.5136 43.4048 74.4589 43.513 74.6279C43.4651 74.6505 43.4124 74.6512 43.3334 74.6514Z" fill="#2C2C2C"/>
<path d="M46.6374 74.0884C46.6277 73.972 46.6896 73.9524 46.8057 74.011C46.7704 74.0424 46.7156 74.0654 46.6374 74.0884Z" fill="#2C2C2C"/>
<path d="M59.0886 68.952C59.1064 68.9218 59.1447 68.889 59.1961 68.8701C59.1757 68.9059 59.1424 68.9276 59.0886 68.952Z" fill="#2C2C2C"/>
<path d="M37.6196 74.8117C37.6657 74.7308 37.7112 74.7388 37.7452 74.8419C37.71 74.8497 37.6716 74.8383 37.6196 74.8117Z" fill="#2C2C2C"/>
<path d="M58.7368 69.1631C58.7546 69.1329 58.7929 69.1 58.8443 69.0812C58.824 69.117 58.7906 69.1387 58.7368 69.1631Z" fill="#2C2C2C"/>
<path d="M56.9777 70.1478C56.9956 70.1176 57.0339 70.085 57.0853 70.0664C57.0649 70.1021 57.0315 70.1237 56.9777 70.1478Z" fill="#2C2C2C"/>
<path d="M59.4404 68.741C59.4582 68.7107 59.4965 68.6779 59.5479 68.6591C59.5276 68.6948 59.4942 68.7166 59.4404 68.741Z" fill="#2C2C2C"/>
<path d="M60.0033 68.3891C60.0211 68.3589 60.0594 68.326 60.1108 68.3072C60.0905 68.3429 60.0571 68.3647 60.0033 68.3891Z" fill="#2C2C2C"/>
<path d="M47.5491 73.8755C47.5671 73.8453 47.6056 73.8134 47.6571 73.7955C47.6365 73.8309 47.6031 73.8523 47.5491 73.8755Z" fill="#2C2C2C"/>
<path d="M70.8348 59.4421C70.7528 59.3924 70.7675 59.3483 70.8698 59.3169C70.8764 59.3523 70.8635 59.3906 70.8348 59.4421Z" fill="#2C2C2C"/>
<path d="M51.2079 72.7497C51.2259 72.7196 51.2644 72.6876 51.3158 72.6697C51.2953 72.7051 51.2618 72.7265 51.2079 72.7497Z" fill="#2C2C2C"/>
<path d="M53.6705 71.7658C53.6885 71.7357 53.727 71.7032 53.7785 71.6848C53.758 71.7204 53.7245 71.7419 53.6705 71.7658Z" fill="#2C2C2C"/>
<path d="M51.2079 47.4399C51.1813 47.472 51.1456 47.4866 51.0917 47.4972C51.047 47.4834 51.0204 47.4736 50.9989 47.4275C51.0169 47.2887 51.0441 47.1856 51.0406 47.0836C51.0205 46.4959 50.9931 45.9084 50.9735 45.2967C50.9584 45.2144 50.938 45.1562 50.9157 45.0754C50.9171 45.0229 50.9204 44.9929 50.9401 44.9467C50.9417 44.8456 50.9269 44.7608 50.9113 44.6432C50.8905 43.2161 50.8658 41.8217 50.8548 40.4272C50.8529 40.1841 50.9066 39.9403 50.9392 39.6974C50.9748 39.4315 51.0295 39.1673 51.0508 38.9004C51.079 38.5464 51.1353 38.4665 51.4877 38.4487C51.7566 38.4352 52.0284 38.4287 52.2963 38.4508C52.8923 38.4999 53.4215 38.3048 53.9239 38.0231C54.6475 37.6174 55.154 37.0038 55.5191 36.2699C55.7157 35.8749 55.9008 35.4737 56.0762 35.069C56.1815 34.826 56.2608 34.5716 56.3471 34.3208C56.4568 34.0023 56.5677 33.684 56.6672 33.3622C56.7799 32.9979 56.9014 32.6343 56.9802 32.2622C57.0452 31.9551 57.0488 31.6355 57.0886 31.3226C57.1164 31.1045 57.1771 30.8896 57.1917 30.6712C57.2197 30.2509 57.2414 29.8289 57.2366 29.408C57.2296 28.7938 57.2939 28.1703 57.0139 27.5854C56.7971 27.1323 56.4235 26.9258 55.9506 26.8648C55.6148 26.8215 55.3603 27.0511 55.0691 27.1551C54.8224 27.2431 54.5992 27.405 54.3489 27.4723C54.1641 27.522 54.0312 27.6043 53.9164 27.742C53.8059 27.8746 53.69 28.003 53.5848 28.1397C53.445 28.3213 53.2268 28.3411 53.0362 28.414C52.7123 28.5379 52.389 28.6697 52.0547 28.7578C51.7089 28.849 51.3504 28.8922 51.1116 28.9356C50.7326 29.3278 50.7436 29.7148 50.7502 30.1052C50.757 30.5037 50.7524 30.9027 50.7398 31.301C50.7355 31.4391 50.7117 31.5833 50.6628 31.7118C50.5646 31.9696 50.4355 32.2154 50.3328 32.4717C50.1108 33.0255 49.7852 33.5132 49.4197 33.9811C48.7405 34.8508 47.8308 35.336 46.7839 35.6035C46.739 35.615 46.6866 35.6212 46.6526 35.6485C46.4639 35.7998 46.2402 35.795 46.0173 35.8084C45.8896 35.816 45.7483 35.8174 45.6394 35.8729C45.3751 36.0078 45.0978 36.0081 44.8166 36.0083C44.4179 36.0086 44.0162 36.0392 43.6214 36.0005C43.1266 35.952 42.6371 35.848 42.1461 35.7632C42.091 35.7536 42.0422 35.7105 41.9887 35.687C41.9147 35.6544 41.8415 35.6143 41.7635 35.597C41.3476 35.5048 40.9796 35.2986 40.6525 35.0475C40.1972 34.6981 39.8376 34.2456 39.542 33.7537C39.2508 33.2692 38.9813 32.7711 38.7186 32.2703C38.6071 32.0578 38.543 31.8209 38.4471 31.5995C38.3243 31.3161 38.1854 31.0396 38.0638 30.7557C37.916 30.4109 37.6348 30.1678 37.3132 30.0661C36.9942 29.9653 36.6707 29.8412 36.2714 29.9995C35.6534 30.2445 35.2806 30.8105 35.194 31.4137C35.1282 31.872 35.0293 32.3256 34.9441 32.7812C34.9399 32.8036 34.9255 32.8241 34.917 32.8459C34.8004 33.1464 34.6782 33.4449 34.5694 33.7482C34.4758 34.0091 34.4077 34.2794 34.3093 34.5383C34.2359 34.7316 34.1536 34.9282 34.0373 35.0973C33.7744 35.4796 33.4764 35.8227 33.1117 36.1293C32.5894 36.5683 31.9886 36.8309 31.3708 37.0478C31.0068 37.1756 30.634 37.3401 30.2256 37.3323C30.1254 37.3304 30.0249 37.3897 29.923 37.4147C29.8105 37.4423 29.6963 37.4822 29.5827 37.4831C28.8676 37.4884 28.1524 37.4851 27.4373 37.4822C27.356 37.4818 27.2592 37.491 27.196 37.4524C26.8087 37.2157 26.3183 37.3475 25.9352 37.0811C25.7578 36.9577 25.5166 36.9257 25.3403 36.8012C24.7873 36.4105 24.2729 35.9722 23.859 35.429C23.5714 35.0515 23.2846 34.6795 23.0893 34.2347C23.0007 34.0329 22.9681 33.8043 22.8514 33.6301C22.721 33.4353 22.6954 33.2385 22.7073 33.0309C22.7407 32.451 22.4201 31.9884 22.2123 31.4892C22.1847 31.4229 22.0868 31.386 22.0035 31.3216C22.0035 32.1662 22.0034 32.9612 22.0042 33.7562C22.0042 33.7792 22.0119 33.8025 22.0184 33.825C22.1752 34.3722 22.1862 34.9336 22.1922 35.4971C22.1942 35.6824 22.2059 35.879 22.2689 36.0498C22.3649 36.3102 22.3857 36.5722 22.3962 36.8426C22.4039 37.04 22.4021 37.2488 22.4665 37.4305C22.5585 37.6898 22.5955 37.9481 22.6148 38.2191C22.647 38.6718 22.8706 39.0921 22.8593 39.5548C23.0214 39.7747 23.0275 40.0325 23.0457 40.2898C23.0521 40.3811 23.0939 40.4698 23.119 40.5598C23.1621 40.7146 23.2066 40.869 23.2468 41.0244C23.2641 41.0917 23.2508 41.1775 23.2881 41.2275C23.5273 41.5482 23.4652 41.9649 23.6504 42.3091C23.785 42.5592 23.8145 42.8634 23.9199 43.1321C24.0972 43.5842 24.3069 44.0235 24.486 44.4749C24.6824 44.9698 24.8957 45.4557 25.1542 45.9213C25.2164 46.0336 25.2911 46.1402 25.3417 46.2573C25.56 46.7623 25.8442 47.2282 26.1572 47.6789C26.4163 48.0519 26.6664 48.4311 26.9205 48.8076C26.9172 48.8397 26.914 48.8718 26.9115 48.9199C26.8745 48.9457 26.8367 48.9554 26.7823 48.9552C26.4481 48.4711 26.1181 48.0048 25.8167 47.5206C25.5529 47.0968 25.3095 46.6591 25.0784 46.2164C24.8207 45.7228 24.5795 45.2201 24.346 44.7145C24.21 44.4199 24.1012 44.1126 23.9834 43.8098C23.8107 43.3662 23.6406 42.9217 23.4701 42.4773C23.4492 42.423 23.43 42.3679 23.4139 42.312C23.2661 41.7987 23.1083 41.288 22.9755 40.7709C22.8691 40.356 22.7978 39.9322 22.702 39.5145C22.6603 39.3329 22.5772 39.1598 22.5457 38.9771C22.4509 38.4271 22.3729 37.8742 22.2864 37.3228C22.2737 37.2424 22.2519 37.1632 22.2319 37.0841C22.2006 36.9601 22.1421 36.8372 22.1388 36.7127C22.1141 35.7661 21.8357 34.8459 21.8606 33.8928C21.8694 33.5574 21.7827 33.2206 21.7665 32.8831C21.7346 32.2201 21.5982 31.5592 21.7263 30.8676C22.0287 30.9021 22.1925 31.1294 22.3371 31.3454C22.5043 31.595 22.6186 31.8805 22.7491 32.1536C22.7784 32.2148 22.7814 32.2891 22.7937 32.3579C22.8486 32.6672 22.8976 32.9777 22.9578 33.2861C23.126 34.1478 23.5771 34.8591 24.1654 35.4882C24.4753 35.8196 24.809 36.1297 25.1439 36.4363C25.2618 36.5442 25.4084 36.6275 25.5538 36.6973C26.1233 36.9708 26.7088 37.1935 27.3495 37.2347C27.5946 37.2505 27.838 37.2947 28.0832 37.3095C28.316 37.3235 28.5507 37.3268 28.7836 37.3152C29.0876 37.3 29.3901 37.2564 29.6941 37.2413C30.2499 37.2137 30.767 37.0326 31.2926 36.8741C31.8242 36.7139 32.3107 36.4731 32.7641 36.1583C33.339 35.7591 33.8166 35.2842 34.0529 34.5993C34.2197 34.116 34.4364 33.6497 34.598 33.1649C34.723 32.7902 34.8037 32.4 34.8917 32.0139C34.9775 31.6377 35.0158 31.2478 35.133 30.8826C35.2609 30.4838 35.5488 30.1905 35.9091 29.9677C36.8987 29.3556 38.0829 30.0472 38.3751 30.9996C38.5062 31.4271 38.7559 31.8167 38.9294 32.2328C39.1642 32.7956 39.4959 33.3011 39.8204 33.8114C40.2561 34.4963 40.8237 35.0012 41.5913 35.3304C42.547 35.7404 43.5329 35.7923 44.538 35.782C44.9122 35.7782 45.2963 35.7812 45.6572 35.699C46.0968 35.599 46.5541 35.5576 46.9722 35.3609C47.2017 35.2529 47.451 35.1881 47.6861 35.0912C48.4999 34.7558 49.107 34.1831 49.5795 33.4494C49.8573 33.0181 50.1261 32.5843 50.3019 32.0998C50.4695 31.6383 50.6137 31.1693 50.6317 30.6747C50.6457 30.2884 50.6339 29.9013 50.6398 29.5147C50.6416 29.3984 50.6472 29.2773 50.6807 29.1674C50.7918 28.8027 50.9425 28.713 51.3386 28.6797C51.579 28.6596 51.8182 28.6004 52.0525 28.5384C52.377 28.4526 52.7013 28.3609 53.0163 28.2458C53.199 28.179 53.397 28.0934 53.5256 27.9572C53.635 27.8413 53.655 27.6408 53.728 27.457C54.2269 27.2795 54.7115 27.1264 55.1621 26.8747C55.6127 26.6229 56.4453 26.6174 56.8968 27.0662C57.0793 27.2476 57.2268 27.5033 57.296 27.7515C57.4404 28.2691 57.527 28.8044 57.4842 29.348C57.4346 29.9766 57.3753 30.6045 57.3223 31.2329C57.3085 31.3962 57.314 31.5618 57.2905 31.7234C57.2624 31.9175 57.2141 32.1088 57.1718 32.3007C57.1592 32.3576 57.1252 32.4117 57.1218 32.4683C57.0935 32.9421 56.8879 33.3596 56.7249 33.7937C56.5371 34.2942 56.3938 34.8113 56.221 35.3178C56.1615 35.4921 56.085 35.6637 55.9931 35.8233C55.733 36.2751 55.4871 36.7385 55.1871 37.163C54.8118 37.694 54.3125 38.0896 53.7154 38.3708C53.4537 38.4941 53.1906 38.5569 52.9125 38.5937C52.843 38.603 52.7676 38.6028 52.706 38.631C52.3904 38.7758 52.0698 38.7448 51.7423 38.6858C51.4261 38.6289 51.4037 38.6809 51.2673 38.988C51.0967 39.3723 51.1666 39.7745 51.125 40.1659C51.0609 40.7693 50.9988 41.3822 51.0348 41.9851C51.1367 43.6927 51.151 45.4011 51.1622 47.1102C51.1629 47.2143 51.1861 47.3184 51.2079 47.4399Z" fill="#CCA2A1"/>
<path d="M51.6363 47.604C51.6193 47.5865 51.601 47.5716 51.5864 47.5664C51.5989 47.5919 51.6138 47.602 51.6363 47.604Z" fill="#CCA2A1"/>
<path d="M25.9585 28.5206C26.9019 28.358 27.8215 28.2833 28.7501 28.2745C29.9251 28.2632 31.0964 28.3085 32.2484 28.5364C32.8642 28.6582 33.4683 28.864 33.9195 29.3545C34.2057 29.6658 34.3762 30.0317 34.4373 30.4454C34.4996 30.8663 34.4719 31.284 34.3832 31.7024C34.2105 32.5168 33.9314 33.2952 33.6502 34.0764C33.425 34.7017 33.0826 35.2212 32.5508 35.6128C32.0388 35.9899 31.4658 36.2315 30.8537 36.4086C30.1262 36.619 29.3773 36.6513 28.6354 36.7368C28.3143 36.7738 27.98 36.7308 27.6552 36.6936C27.1445 36.6351 26.6243 36.5741 26.1625 36.3386C25.8014 36.1545 25.4524 35.9275 25.1428 35.6665C24.6502 35.2512 24.2393 34.751 23.9121 34.195C23.5311 33.5478 23.3514 32.8379 23.3705 32.0849C23.3827 31.605 23.379 31.121 23.4429 30.647C23.5528 29.8313 24.0272 29.2624 24.775 28.9371C25.1488 28.7746 25.5436 28.6604 25.9585 28.5206Z" fill="#F8F8F8"/>
<path d="M47.8238 26.6398C48.0846 26.7263 48.3225 26.792 48.5484 26.8862C49.0775 27.1068 49.4076 27.5253 49.5951 28.0474C49.8934 28.8777 50.0947 29.7271 50.0508 30.6233C50.0269 31.1121 49.8788 31.554 49.7038 32.005C49.4713 32.6044 49.1043 33.1108 48.7213 33.6088C48.4329 33.9836 48.0444 34.249 47.6272 34.4706C46.7402 34.9417 45.7777 35.0866 44.7922 35.1821C44.0708 35.252 43.3569 35.2164 42.6598 35.0836C41.6081 34.8834 40.7542 34.3445 40.2162 33.3761C39.9789 32.9489 39.7069 32.5405 39.4795 32.1084C39.1239 31.4325 38.8831 30.716 38.7834 29.9536C38.7359 29.591 38.891 29.2862 39.0369 28.985C39.3054 28.431 39.7838 28.0947 40.3351 27.8674C40.8618 27.6502 41.3956 27.4459 41.9382 27.2731C42.3261 27.1495 42.7331 27.0851 43.1325 26.998C43.5434 26.9083 43.955 26.8218 44.3668 26.7366C44.5613 26.6963 44.7558 26.6428 44.9527 26.6286C45.8999 26.5604 46.848 26.5131 47.8238 26.6398Z" fill="#F8F8F8"/>
<path opacity="0.2" d="M35.7182 15.5786C36.0135 15.5275 36.2789 15.442 36.5428 15.4466C37.0519 15.4555 37.5384 15.3445 38.0306 15.2514C38.1449 15.2298 38.263 15.2244 38.3796 15.2205C38.6712 15.2107 38.9538 15.1967 39.2408 15.0965C39.4876 15.0103 39.7721 15.035 40.0388 15.0022C40.2929 14.971 40.546 14.931 40.7988 14.8905C40.949 14.8665 41.0988 14.8053 41.247 14.8107C41.7325 14.8281 42.197 14.7143 42.6644 14.6157C42.9052 14.565 43.128 14.5933 43.3423 14.7155C43.4016 14.7494 43.4716 14.7761 43.539 14.7826C43.9424 14.8215 44.2978 15.0031 44.6431 15.1863C44.9181 15.3322 45.1874 15.5174 45.4043 15.7389C45.9427 16.2886 46.482 16.8435 46.9579 17.4461C47.2776 17.8511 47.4978 18.3367 47.7469 18.7947C47.8846 19.048 48.0248 19.3093 48.1 19.5845C48.1759 19.8622 48.1737 20.1614 48.2041 20.4513C48.2684 21.0662 48.3049 21.6857 48.4053 22.2946C48.4667 22.6671 48.6248 23.0238 48.7408 23.3872C48.8254 23.6521 48.9079 23.9178 48.9992 24.1804C49.1169 24.5189 49.2402 24.8555 49.3656 25.1913C49.4374 25.3835 49.4032 25.4785 49.2116 25.5408C49.1239 25.5693 49.0268 25.594 48.9367 25.5866C48.3444 25.5373 47.7763 25.7088 47.1962 25.7679C47.1846 25.7691 47.1731 25.7752 47.1618 25.7746C46.4899 25.739 45.8622 26.049 45.1912 26.0269C45.1133 26.0244 45.0329 26.0596 44.9558 26.0841C44.9007 26.1016 44.8514 26.1424 44.7958 26.1524C44.2466 26.2508 43.6962 26.3425 43.1471 26.4418C43.0002 26.4684 42.8563 26.5124 42.712 26.552C42.6444 26.5705 42.5805 26.6031 42.5126 26.6195C42.153 26.7059 41.7886 26.7753 41.4338 26.878C41.1455 26.9615 40.8715 27.0929 40.5857 27.1865C40.2343 27.3015 39.8771 27.3984 39.5231 27.5055C39.4459 27.5288 39.3717 27.5618 39.2962 27.5906C39.1987 27.6277 39.1031 27.6901 39.0036 27.697C38.7898 27.7118 38.585 27.7372 38.4067 27.8679C38.3976 27.8746 38.3854 27.8785 38.3741 27.8805C37.9071 27.9648 37.442 28.0621 36.9725 28.1287C36.5451 28.1894 36.1138 28.2371 35.6829 28.253C35.2639 28.2685 34.8428 28.2442 34.4234 28.223C34.0385 28.2036 33.655 28.1576 33.2701 28.1372C32.9198 28.1186 32.5707 28.1183 32.2414 27.9634C32.1517 27.9212 32.0343 27.9283 31.9298 27.9288C31.3076 27.9316 30.6933 27.8601 30.0817 27.7519C29.933 27.7256 29.7789 27.722 29.6272 27.7216C27.4352 27.7162 25.2432 27.7131 23.0512 27.7094C22.9926 27.7093 22.9336 27.7125 22.8755 27.7068C22.5875 27.6785 22.5602 27.6 22.6394 27.3252C22.7899 26.8027 23.0555 26.3226 23.1646 25.783C23.2351 25.4343 23.3874 25.1023 23.5005 24.762C23.5224 24.6961 23.5368 24.6268 23.5467 24.5578C23.5568 24.4885 23.5453 24.4144 23.5635 24.348C23.6767 23.935 23.7969 23.524 23.9116 23.1114C23.9395 23.0112 23.9543 22.9074 23.9768 22.8056C24.0044 22.6804 24.0297 22.5546 24.0635 22.4311C24.1027 22.2873 24.1475 22.1449 24.1945 22.0034C24.275 21.7609 24.344 21.513 24.4449 21.279C24.6518 20.7988 24.8409 20.3054 25.1022 19.8551C25.5105 19.1515 25.9919 18.4904 26.404 17.7888C26.6031 17.4498 26.8946 17.2823 27.2256 17.1376C27.65 16.9521 28.0679 16.7498 28.5001 16.5849C28.8352 16.4571 29.1875 16.3738 29.5331 16.2737C29.9212 16.1613 30.3102 16.0518 30.6991 15.9422C30.7892 15.9168 30.8795 15.8817 30.9715 15.8754C31.6917 15.826 32.3979 15.6579 33.1291 15.681C33.877 15.7046 34.6273 15.6552 35.3765 15.6333C35.4806 15.6302 35.584 15.6016 35.7182 15.5786ZM26.4651 27.5646C27.5316 27.5784 28.5983 27.5837 29.6645 27.609C30.308 27.6242 30.9513 27.6618 31.5935 27.707C31.8833 27.7274 32.1697 27.7929 32.4583 27.8339C32.7361 27.8733 33.0145 27.9083 33.2929 27.9438C33.5366 27.9748 33.7806 28.0298 34.0243 28.0292C35.1211 28.0263 36.225 28.1557 37.3079 27.8561C37.6102 27.7725 37.9252 27.736 38.2314 27.665C38.56 27.5889 38.886 27.5012 39.2113 27.4117C39.5248 27.3254 39.8394 27.2408 40.1471 27.1365C40.4522 27.0331 40.7439 26.8892 41.051 26.7938C41.3941 26.6872 41.7482 26.616 42.0969 26.5269C42.1531 26.5126 42.2046 26.4801 42.2606 26.4647C42.4173 26.4216 42.5744 26.3792 42.7331 26.344C42.8583 26.3163 42.9866 26.3027 43.1126 26.2777C43.3639 26.2281 43.6145 26.175 43.8654 26.1232C43.9795 26.0997 44.0935 26.0753 44.2078 26.0522C44.4363 26.0062 44.6636 25.9528 44.8936 25.9167C45.4813 25.8245 46.0703 25.7402 46.6587 25.6522C46.6817 25.6487 46.7037 25.6384 46.7267 25.6345C46.9907 25.5903 47.2535 25.5338 47.5193 25.5057C47.9726 25.4578 48.4297 25.4426 48.8815 25.3848C49.1477 25.3507 49.1974 25.2384 49.1092 25C49.0366 24.8038 48.9513 24.6121 48.8816 24.4148C48.6993 23.8985 48.4929 23.3882 48.351 22.8607C48.1781 22.2179 48.0519 21.5615 48.0746 20.8875C48.1055 19.9667 47.7647 19.1542 47.3404 18.3645C47.0678 17.8574 46.7235 17.3997 46.3525 16.9658C45.9524 16.498 45.5405 16.0391 45.0318 15.6758C44.6486 15.4022 44.2423 15.2009 43.7962 15.047C43.48 14.938 43.1682 14.8299 42.8413 14.8597C41.9343 14.9425 41.03 15.0533 40.1248 15.1546C40.079 15.1597 40.0355 15.184 39.9897 15.1923C39.7832 15.23 39.577 15.2723 39.369 15.2993C39.1024 15.3339 38.8332 15.3491 38.5667 15.3846C38.3009 15.4201 38.038 15.4778 37.7721 15.5121C37.5051 15.5467 37.2355 15.5598 36.9679 15.5906C36.5503 15.6387 36.1339 15.6968 35.7163 15.7448C35.4836 15.7715 35.2433 15.7593 35.0174 15.8119C34.485 15.9358 33.9472 15.9188 33.4086 15.9251C32.8343 15.9319 32.2599 15.9431 31.6861 15.9653C31.5129 15.972 31.3393 16.013 31.1694 16.0531C30.7506 16.1517 30.3333 16.257 29.9163 16.3631C29.5663 16.4521 29.2083 16.5206 28.8705 16.6438C28.369 16.8265 27.8731 17.0306 27.3928 17.2627C27.129 17.3901 26.824 17.4616 26.6485 17.7515C26.1903 18.5083 25.7041 19.2482 25.2491 20.0069C25.0525 20.3347 24.8897 20.6856 24.7406 21.0383C24.6194 21.325 24.5335 21.6277 24.4464 21.9276C24.3101 22.3966 24.1862 22.8692 24.0568 23.3403C24.0352 23.4192 24.0121 23.4977 23.9906 23.5767C23.8774 23.9926 23.764 24.4084 23.6515 24.8245C23.5604 25.1614 23.4849 25.5034 23.3763 25.8345C23.2205 26.3097 23.0394 26.7764 22.8725 27.248C22.8223 27.3901 22.8746 27.4646 23.0317 27.4866C23.0776 27.493 23.1253 27.4872 23.1721 27.487C23.7935 27.4846 24.415 27.4723 25.0361 27.4829C25.4916 27.4906 25.9465 27.5284 26.4651 27.5646Z" fill="#2C2C2C"/>
<path d="M42.8071 68.5847C43.0634 68.2895 43.3205 68.0068 43.6 67.7482C44.3689 67.0369 45.1482 66.3369 45.9214 65.6301C46.7724 64.8521 47.6196 64.0698 48.4718 63.293C48.7632 63.0275 49.0646 62.773 49.3863 62.5065C49.3836 62.6077 49.3883 62.7438 49.323 62.8192C49.017 63.1722 48.6922 63.5089 48.3727 63.8501C48.3411 63.8839 48.3048 63.9207 48.2633 63.9366C47.8519 64.0936 47.5917 64.4353 47.2883 64.7249C46.9589 65.0394 46.6254 65.3496 46.2953 65.6633C46.0425 65.9035 45.7983 66.153 45.5388 66.3857C45.3228 66.5794 45.0774 66.7411 44.8677 66.9408C44.4624 67.3269 44.0769 67.7337 43.6755 68.1241C43.4833 68.3111 43.273 68.4793 43.0723 68.6577C42.9639 68.7541 42.8842 68.7207 42.8071 68.5847Z" fill="#2C2C2C"/>
<path d="M49.8195 62.179C49.979 61.7893 50.1442 61.3911 50.366 61.0274C50.6781 60.5157 50.8995 59.9673 51.062 59.3995C51.1468 59.1032 51.122 58.7756 51.1551 58.4306C51.2146 58.4385 51.3047 58.4728 51.3106 58.518C51.3757 59.0162 51.3796 59.5167 51.1642 59.9818C51.0043 60.3271 50.7962 60.6497 50.617 60.9865C50.547 61.1179 50.4972 61.26 50.4386 61.3973C50.349 61.6072 50.265 61.8197 50.1683 62.0262C50.1076 62.1555 49.9943 62.2081 49.8195 62.179Z" fill="#2C2C2C"/>
<path d="M40.9231 70.5711C40.9384 70.4923 40.9695 70.4016 41.0292 70.3375C41.3109 70.035 41.6004 69.7397 41.9096 69.4371C42.0283 69.4543 42.1493 69.4971 42.0789 69.6099C41.8308 70.0075 41.5441 70.3744 41.0913 70.5623C41.0507 70.5791 40.9988 70.569 40.9231 70.5711Z" fill="#2C2C2C"/>
<path d="M40.2671 71.3168C40.397 71.1233 40.5538 70.9381 40.734 70.743C40.7809 71.0696 40.571 71.2237 40.2671 71.3168Z" fill="#2C2C2C"/>
<path d="M42.1561 69.2186C42.188 69.1401 42.2495 69.0647 42.3356 68.9878C42.3961 69.1344 42.3352 69.2109 42.1561 69.2186Z" fill="#2C2C2C"/>
<path d="M42.384 68.9981C42.4146 68.9172 42.4741 68.8426 42.5588 68.7629C42.6001 68.8908 42.5741 68.9944 42.384 68.9981Z" fill="#2C2C2C"/>
<path d="M26.945 48.8163C26.6664 48.4311 26.4163 48.0519 26.1572 47.6789C25.8442 47.2282 25.56 46.7623 25.3417 46.2573C25.2911 46.1402 25.2164 46.0336 25.1542 45.9213C24.8957 45.4557 24.6824 44.9698 24.486 44.4749C24.3069 44.0235 24.0972 43.5842 23.9199 43.1321C23.8145 42.8634 23.785 42.5592 23.6505 42.3091C23.4652 41.9649 23.5273 41.5482 23.2881 41.2275C23.2508 41.1774 23.2642 41.0917 23.2468 41.0244C23.2066 40.869 23.1621 40.7146 23.119 40.5598C23.0939 40.4698 23.0521 40.3811 23.0457 40.2898C23.0275 40.0325 23.0214 39.7747 22.8593 39.5548C22.8706 39.0921 22.647 38.6718 22.6148 38.219C22.5956 37.9481 22.5585 37.6898 22.4665 37.4305C22.4021 37.2488 22.4039 37.04 22.3962 36.8426C22.3857 36.5722 22.3649 36.3102 22.269 36.0498C22.206 35.8789 22.1942 35.6824 22.1923 35.4971C22.1862 34.9336 22.1752 34.3722 22.0184 33.825C22.012 33.8025 22.0042 33.7792 22.0042 33.7562C22.0034 32.9612 22.0035 32.1662 22.0035 31.3216C22.0868 31.386 22.1847 31.4229 22.2123 31.4892C22.4201 31.9884 22.7407 32.451 22.7074 33.0309C22.6954 33.2385 22.721 33.4353 22.8515 33.6301C22.9682 33.8043 23.0007 34.0329 23.0894 34.2347C23.2846 34.6795 23.5714 35.0515 23.859 35.429C24.2729 35.9722 24.7874 36.4105 25.3404 36.8012C25.5166 36.9257 25.7578 36.9577 25.9353 37.0811C26.3183 37.3475 26.8087 37.2157 27.196 37.4524C27.2592 37.491 27.356 37.4818 27.4373 37.4822C28.1525 37.4851 28.8676 37.4884 29.5827 37.483C29.6963 37.4822 29.8105 37.4422 29.923 37.4147C30.0249 37.3897 30.1254 37.3304 30.2257 37.3323C30.634 37.3401 31.0068 37.1756 31.3708 37.0478C31.9886 36.8309 32.5894 36.5683 33.1117 36.1293C33.4764 35.8227 33.7744 35.4796 34.0373 35.0973C34.1536 34.9282 34.2359 34.7316 34.3093 34.5383C34.4078 34.2794 34.4758 34.0091 34.5694 33.7482C34.6782 33.4449 34.8004 33.1464 34.917 32.8459C34.9255 32.8241 34.9399 32.8036 34.9441 32.7812C35.0293 32.3256 35.1282 31.872 35.194 31.4137C35.2806 30.8105 35.6534 30.2445 36.2714 29.9995C36.6707 29.8412 36.9943 29.9653 37.3132 30.0661C37.6348 30.1678 37.916 30.4109 38.0638 30.7557C38.1855 31.0396 38.3243 31.3161 38.4471 31.5995C38.5431 31.8209 38.6072 32.0578 38.7187 32.2703C38.9813 32.7711 39.2508 33.2692 39.542 33.7537C39.8376 34.2456 40.1972 34.6981 40.6525 35.0475C40.9796 35.2986 41.3476 35.5048 41.7635 35.597C41.8415 35.6143 41.9147 35.6544 41.9888 35.687C42.0422 35.7105 42.091 35.7536 42.1461 35.7632C42.6371 35.848 43.1266 35.952 43.6214 36.0005C44.0162 36.0392 44.4179 36.0086 44.8166 36.0083C45.0979 36.0081 45.3752 36.0078 45.6394 35.8729C45.7483 35.8173 45.8896 35.816 46.0173 35.8084C46.2402 35.795 46.4639 35.7998 46.6526 35.6485C46.6866 35.6212 46.739 35.615 46.784 35.6034C47.8308 35.336 48.7406 34.8508 49.4198 33.9811C49.7852 33.5132 50.1108 33.0255 50.3328 32.4717C50.4355 32.2154 50.5646 31.9696 50.6628 31.7118C50.7117 31.5833 50.7355 31.4391 50.7398 31.301C50.7524 30.9027 50.757 30.5037 50.7503 30.1052C50.7436 29.7148 50.7326 29.3278 51.1116 28.9356C51.3504 28.8922 51.7089 28.849 52.0548 28.7578C52.389 28.6697 52.7124 28.5379 53.0362 28.414C53.2268 28.3411 53.445 28.3213 53.5848 28.1397C53.69 28.003 53.8059 27.8746 53.9165 27.742C54.0312 27.6043 54.1641 27.522 54.349 27.4722C54.5992 27.405 54.8224 27.2431 55.0691 27.1551C55.3603 27.0511 55.6148 26.8215 55.9506 26.8648C56.4235 26.9257 56.7971 27.1323 57.014 27.5854C57.2939 28.1703 57.2296 28.7938 57.2366 29.408C57.2414 29.8289 57.2197 30.2509 57.1917 30.6712C57.1771 30.8896 57.1164 31.1045 57.0887 31.3226C57.0488 31.6355 57.0452 31.9551 56.9802 32.2622C56.9014 32.6343 56.7799 32.9979 56.6672 33.3622C56.5677 33.684 56.4568 34.0023 56.3472 34.3208C56.2608 34.5716 56.1815 34.826 56.0762 35.0689C55.9008 35.4737 55.7157 35.8749 55.5192 36.2699C55.154 37.0037 54.6475 37.6174 53.9239 38.0231C53.4216 38.3048 52.8923 38.4999 52.2963 38.4508C52.0284 38.4287 51.7567 38.4352 51.4877 38.4487C51.1353 38.4665 51.079 38.5464 51.0508 38.9004C51.0295 39.1673 50.9748 39.4315 50.9392 39.6974C50.9067 39.9403 50.8529 40.1841 50.8548 40.4272C50.8658 41.8217 50.8905 43.2161 50.8929 44.6592C50.8235 44.8059 50.8224 44.8941 50.9237 44.9629C50.9204 44.9929 50.9172 45.0229 50.8979 45.0894C50.8166 45.2325 50.8609 45.2906 50.9682 45.3209C50.9931 45.9084 51.0205 46.4959 51.0406 47.0836C51.0441 47.1856 51.0169 47.2887 50.9917 47.4195C50.8109 47.4727 50.8378 47.618 50.8235 47.7232C50.7411 48.333 50.6475 48.9428 50.5587 49.5501C50.4831 50.0673 50.4479 50.5918 50.3464 51.1011C50.2855 51.4068 50.2067 51.7114 50.1722 52.0228C50.1516 52.2085 50.1547 52.3971 50.1512 52.5845C50.1467 52.8212 50.2102 52.9884 50.4533 53.1199C50.6118 53.2056 50.7571 53.4388 50.7828 53.6234C50.8578 54.1618 50.9446 54.6949 50.8982 55.2556C50.8358 56.009 50.8997 56.7737 50.9214 57.5332C50.9346 57.9964 51.087 58.4602 50.8972 58.9209C50.8712 58.9838 50.8681 59.0588 50.8664 59.1285C50.853 59.6825 50.6037 60.1567 50.3583 60.6312C50.1613 61.0122 49.9724 61.3991 49.7466 61.7628C49.6145 61.9755 49.4275 62.1584 49.2463 62.3354C49.0722 62.5056 48.867 62.6434 48.6873 62.8084C48.0692 63.3759 47.459 63.9521 46.8407 64.5193C46.2479 65.0629 45.6471 65.5978 45.0529 66.14C44.7094 66.4535 44.3722 66.7739 44.0319 67.091C43.784 67.3219 43.5374 67.5542 43.2874 67.7828C42.9682 68.0746 42.6343 68.3516 42.3285 68.6567C42.032 68.9524 41.7666 69.279 41.4812 69.5863C41.0128 70.0906 40.5303 70.5822 40.0706 71.0942C39.6363 71.5779 39.2277 72.0845 38.7994 72.5737C38.6229 72.7752 38.4168 72.9507 38.2376 73.15C37.8959 73.53 37.5671 73.9217 37.2251 74.3014C37.1483 74.3866 37.039 74.4425 36.9496 74.5082C36.7025 74.1795 36.4974 73.8815 36.2665 73.605C35.8514 73.1078 35.4107 72.6319 35.0001 72.1311C34.7054 71.7717 34.4445 71.3849 34.1643 71.0134C34.0529 70.8657 33.9211 70.7331 33.8146 70.5822C33.468 70.0913 33.126 69.5971 32.7878 69.1004C32.5017 68.6802 32.2507 68.2326 31.9328 67.8386C31.6816 67.5273 31.4991 67.1822 31.309 66.8058C31.3661 66.7426 31.414 66.729 31.4454 66.6985C31.5046 66.6411 31.5542 66.5739 31.6079 66.5108C31.5356 66.4622 31.4689 66.3891 31.3897 66.371C31.2804 66.346 31.1615 66.3625 31.0468 66.3612C30.7791 66.1398 30.6438 65.8254 30.4792 65.5345C30.2844 65.1903 30.1119 64.8334 29.9298 64.482C29.9138 64.4511 29.8942 64.4214 29.883 64.3888C29.8079 64.171 29.722 63.956 29.6634 63.7337C29.5311 63.2314 29.2597 62.7957 29.0239 62.3422C28.9397 62.1802 28.8676 62.012 28.7908 61.7993C28.7914 61.6281 28.711 61.5829 28.6055 61.5626C28.5956 61.5166 28.5858 61.4707 28.5784 61.3775C28.5809 61.2058 28.5008 61.1602 28.3943 61.1406C28.2779 60.8453 28.1546 60.5524 28.0478 60.2537C27.9938 60.1024 27.9464 59.942 27.9358 59.7831C27.8926 59.1347 27.8648 58.4854 27.8549 57.7989C27.9775 57.6975 27.978 57.6285 27.8893 57.5547C27.9172 57.1788 27.9451 56.803 28.0008 56.3904C28.1324 56.2555 28.2331 56.1565 28.1053 56.0068C28.0984 55.7814 28.1333 55.5698 28.2713 55.3796C28.3225 55.3092 28.3398 55.2142 28.4064 55.1076C28.5491 55.0462 28.6066 54.9792 28.5657 54.8577C28.559 54.2527 28.5539 53.6477 28.545 53.0428C28.5412 52.7864 28.5296 52.5302 28.5389 52.2263C28.6126 52.0632 28.6178 51.9655 28.4667 51.9223C28.465 51.8919 28.4633 51.8615 28.4788 51.7904C28.5329 51.6021 28.5905 51.4498 28.4018 51.3564C28.3757 51.0083 28.3663 50.6579 28.316 50.3133C28.2938 50.1617 28.2085 50.0077 28.1165 49.8804C27.9619 49.6666 27.7561 49.4879 27.6143 49.2672C27.4555 49.02 27.2232 48.9153 26.945 48.8163Z" fill="white"/>
<path d="M31.061 66.3837C31.1616 66.3625 31.2804 66.346 31.3897 66.371C31.4689 66.3891 31.5356 66.4622 31.6079 66.5108C31.5543 66.5739 31.5046 66.6411 31.4454 66.6985C31.414 66.729 31.3661 66.7426 31.2984 66.782C31.2308 66.7539 31.1775 66.7136 31.153 66.6601C31.1164 66.5803 31.1001 66.4912 31.061 66.3837Z" fill="#F5C7C7"/>
<path d="M28.397 51.3849C28.5905 51.4498 28.5329 51.6021 28.4774 51.7676C28.4366 51.6615 28.4144 51.5374 28.397 51.3849Z" fill="#D7D7D7"/>
<path d="M28.0875 56.0231C28.2331 56.1565 28.1323 56.2555 28.0068 56.3613C28.0133 56.259 28.0415 56.1492 28.0875 56.0231Z" fill="#D7D7D7"/>
<path d="M28.4609 51.9475C28.6178 51.9655 28.6125 52.0632 28.537 52.1934C28.497 52.1297 28.476 52.0512 28.4609 51.9475Z" fill="#D7D7D7"/>
<path d="M28.5466 54.868C28.6066 54.9792 28.5491 55.0462 28.4159 55.0891C28.4369 55.0216 28.4822 54.95 28.5466 54.868Z" fill="#D6D6D6"/>
<path d="M28.3945 61.1634C28.5008 61.1602 28.5809 61.2058 28.5733 61.3546C28.5088 61.3147 28.4518 61.2504 28.3945 61.1634Z" fill="#D7D7D7"/>
<path d="M28.6056 61.5854C28.711 61.5829 28.7914 61.6281 28.7843 61.7761C28.7198 61.7363 28.6628 61.6723 28.6056 61.5854Z" fill="#D6D6D6"/>
<path d="M27.8727 57.5714C27.978 57.6285 27.9774 57.6975 27.8573 57.7666C27.8429 57.7106 27.8496 57.6494 27.8727 57.5714Z" fill="#D6D6D6"/>
<path d="M50.9402 44.9467C50.8224 44.8941 50.8235 44.8059 50.8937 44.692C50.927 44.7608 50.9418 44.8457 50.9402 44.9467Z" fill="#F7D1D1"/>
<path d="M50.9735 45.2967C50.8609 45.2906 50.8166 45.2325 50.8998 45.112C50.938 45.1562 50.9585 45.2144 50.9735 45.2967Z" fill="#F7D1D1"/>
<path d="M26.4334 27.5587C25.9465 27.5284 25.4915 27.4906 25.036 27.4829C24.4149 27.4723 23.7934 27.4846 23.1721 27.487C23.1252 27.4872 23.0776 27.493 23.0316 27.4866C22.8746 27.4646 22.8222 27.3901 22.8725 27.248C23.0393 26.7764 23.2205 26.3097 23.3763 25.8345C23.4848 25.5034 23.5603 25.1614 23.6514 24.8245C23.764 24.4084 23.8773 23.9926 23.9906 23.5767C24.0121 23.4977 24.0351 23.4192 24.0568 23.3403C24.1861 22.8692 24.3101 22.3966 24.4463 21.9276C24.5334 21.6277 24.6194 21.325 24.7406 21.0383C24.8897 20.6856 25.0525 20.3347 25.2491 20.0069C25.7041 19.2482 26.1903 18.5083 26.6485 17.7515C26.8239 17.4616 27.129 17.3901 27.3928 17.2627C27.8731 17.0306 28.369 16.8265 28.8704 16.6438C29.2083 16.5206 29.5663 16.4521 29.9163 16.3631C30.3333 16.257 30.7505 16.1517 31.1693 16.0531C31.3393 16.013 31.5128 15.972 31.686 15.9653C32.2599 15.9431 32.8343 15.9319 33.4086 15.9251C33.9472 15.9188 34.485 15.9358 35.0174 15.8119C35.2432 15.7593 35.4836 15.7715 35.7163 15.7448C36.1339 15.6968 36.5503 15.6387 36.9679 15.5906C37.2354 15.5598 37.5051 15.5467 37.7721 15.5121C38.038 15.4778 38.3008 15.4201 38.5666 15.3846C38.8331 15.3491 39.1023 15.3339 39.369 15.2993C39.577 15.2723 39.7831 15.23 39.9897 15.1923C40.0355 15.184 40.0789 15.1597 40.1247 15.1546C41.0299 15.0533 41.9343 14.9425 42.8412 14.8597C43.1681 14.8299 43.48 14.938 43.7961 15.047C44.2423 15.2009 44.6485 15.4022 45.0317 15.6758C45.5405 16.0391 45.9523 16.498 46.3524 16.9658C46.7235 17.3997 47.0677 17.8574 47.3403 18.3645C47.7647 19.1542 48.1055 19.9667 48.0745 20.8875C48.0519 21.5615 48.178 22.2179 48.3509 22.8607C48.4928 23.3882 48.6992 23.8985 48.8816 24.4148C48.9512 24.6121 49.0365 24.8038 49.1092 25C49.1974 25.2384 49.1477 25.3507 48.8815 25.3848C48.4297 25.4426 47.9726 25.4578 47.5193 25.5057C47.2535 25.5338 46.9907 25.5903 46.7266 25.6345C46.7036 25.6384 46.6817 25.6487 46.6587 25.6522C46.0702 25.7402 45.4813 25.8245 44.8935 25.9167C44.6635 25.9528 44.4362 26.0062 44.2078 26.0522C44.0935 26.0753 43.9795 26.0997 43.8653 26.1232C43.6144 26.175 43.3638 26.2281 43.1125 26.2777C42.9866 26.3027 42.8583 26.3163 42.733 26.344C42.5744 26.3792 42.4173 26.4216 42.2606 26.4647C42.2045 26.4801 42.153 26.5126 42.0968 26.5269C41.7482 26.616 41.3941 26.6872 41.051 26.7938C40.7439 26.8892 40.4521 27.0331 40.1471 27.1365C39.8394 27.2408 39.5248 27.3254 39.2113 27.4117C38.886 27.5012 38.5599 27.5889 38.2314 27.665C37.9252 27.736 37.6102 27.7725 37.3079 27.8561C36.2249 28.1557 35.1211 28.0263 34.0242 28.0292C33.7805 28.0298 33.5365 27.9748 33.2929 27.9438C33.0145 27.9083 32.7361 27.8733 32.4582 27.8339C32.1697 27.7929 31.8832 27.7274 31.5934 27.707C30.9513 27.6618 30.308 27.6242 29.6645 27.609C28.5983 27.5836 27.5316 27.5784 26.4334 27.5587Z" fill="#FDFEFD"/>
</svg>
