<svg width="43" height="40" viewBox="0 0 43 40" fill="none" xmlns="http://www.w3.org/2000/svg">
<path d="M21.4999 24.0786C23.6623 24.0786 25.4153 22.2525 25.4153 19.9999C25.4153 17.7473 23.6623 15.9212 21.4999 15.9212C19.3376 15.9212 17.5846 17.7473 17.5846 19.9999C17.5846 22.2525 19.3376 24.0786 21.4999 24.0786Z" fill="black"/>
<path d="M36.3714 13.2737C35.6158 12.9875 34.8259 12.7013 34.0016 12.4508C34.2077 11.5921 34.3794 10.7335 34.5168 9.91055C35.238 5.18783 34.4481 1.86046 32.25 0.572451C31.5974 0.178891 30.8762 0 30.0519 0C27.6478 0 24.5911 1.86046 21.5 4.97317C18.4089 1.86046 15.3522 0 12.9481 0C12.1238 0 11.4026 0.178891 10.75 0.572451C8.55192 1.89624 7.76198 5.22361 8.48323 9.91055C8.62061 10.7335 8.79233 11.5921 8.9984 12.4508C8.17412 12.7013 7.38419 12.9517 6.62859 13.2737C2.33546 14.9911 0 17.3524 0 20C0 22.6476 2.36981 25.0089 6.62859 26.7263C7.38419 27.0125 8.17412 27.2987 8.9984 27.5492C8.79233 28.4079 8.62061 29.2665 8.48323 30.0894C7.76198 34.8122 8.55192 38.1395 10.75 39.4275C11.4026 39.8211 12.1238 40 12.9481 40C15.3866 40 18.4433 38.1395 21.5 35.0268C24.5911 38.1395 27.6478 40 30.0519 40C30.8762 40 31.5974 39.8211 32.25 39.4275C34.4481 38.1038 35.238 34.7764 34.5168 30.0894C34.3794 29.2665 34.2077 28.4079 34.0016 27.5492C34.8259 27.2987 35.6158 27.0483 36.3714 26.7263C40.6645 25.0089 43 22.6476 43 20C43 17.3524 40.6645 14.9911 36.3714 13.2737V13.2737ZM31.2883 2.36136C32.6965 3.22004 33.1773 5.86762 32.5935 9.62433C32.4904 10.3757 32.3187 11.1628 32.1126 11.9857C30.3267 11.5564 28.4377 11.2701 26.4457 11.0912C25.278 9.37388 24.0759 7.83542 22.8738 6.44007C25.4153 3.82826 27.9912 2.03936 30.0863 2.03936C30.5327 2.03936 30.9449 2.14669 31.2883 2.36136V2.36136ZM27.4417 23.5778C26.8235 24.7227 26.1022 25.8676 25.3466 27.0125C24.0759 27.1199 22.8051 27.1556 21.5 27.1556C20.1605 27.1556 18.8898 27.1199 17.6534 27.0125C16.8978 25.8676 16.2109 24.7227 15.5927 23.5778C14.9401 22.3971 14.3219 21.1807 13.7724 20C14.3219 18.8193 14.9401 17.6029 15.5927 16.4222C16.2109 15.2773 16.9321 14.1324 17.6877 12.9875C18.9585 12.8801 20.2292 12.8444 21.5343 12.8444C22.8738 12.8444 24.1446 12.8801 25.381 12.9875C26.1366 14.1324 26.8235 15.2773 27.4417 16.4222C28.0943 17.6029 28.7125 18.8193 29.262 20C28.6781 21.1807 28.0943 22.3614 27.4417 23.5778ZM30.2923 22.3971C30.8075 23.6494 31.2196 24.8658 31.5974 26.0823C30.4297 26.3685 29.1933 26.5832 27.8882 26.7621C28.3003 26.0823 28.7468 25.3667 29.1246 24.6154C29.5367 23.864 29.9145 23.1127 30.2923 22.3971ZM21.5 32.093C20.6757 31.1628 19.8858 30.161 19.1302 29.1234C19.9201 29.1592 20.7101 29.195 21.5 29.195C22.2899 29.195 23.0799 29.1592 23.8698 29.1234C23.1142 30.161 22.3243 31.1628 21.5 32.093ZM15.1118 26.7263C13.8067 26.5474 12.5703 26.3327 11.4026 26.0465C11.7804 24.8658 12.1925 23.6136 12.7077 22.3614C13.0855 23.0769 13.4633 23.8283 13.8754 24.5438C14.2875 25.3309 14.6997 26.0107 15.1118 26.7263V26.7263ZM12.7077 17.6029C12.1925 16.3506 11.7804 15.1342 11.4026 13.9177C12.5703 13.6315 13.8067 13.4168 15.1118 13.2379C14.6997 13.9177 14.2532 14.6333 13.8754 15.3846C13.4633 16.136 13.0855 16.8873 12.7077 17.6029V17.6029ZM21.5 7.90698C22.3243 8.83721 23.1142 9.839 23.8698 10.8766C23.0799 10.8408 22.2899 10.805 21.5 10.805C20.7101 10.805 19.9201 10.8408 19.1302 10.8766C19.8858 9.839 20.6757 8.83721 21.5 7.90698ZM29.1246 15.4204L27.8882 13.2737C29.1933 13.4526 30.4297 13.6673 31.5974 13.9535C31.2196 15.1342 30.8075 16.3864 30.2923 17.6386C29.9145 16.8873 29.5367 16.136 29.1246 15.4204ZM10.4066 9.62433C9.82268 5.86762 10.3035 3.22004 11.7117 2.36136C12.0551 2.14669 12.4673 2.03936 12.9137 2.03936C14.9744 2.03936 17.5503 3.79249 20.1262 6.44007C18.9241 7.79964 17.722 9.37388 16.5543 11.0912C14.5623 11.2701 12.6733 11.5921 10.8874 11.9857C10.6813 11.1628 10.5439 10.3757 10.4066 9.62433V9.62433ZM1.92332 20C1.92332 18.3184 3.88099 16.5295 7.3155 15.2057C8.0024 14.9195 8.75799 14.6691 9.51358 14.4544C10.0631 16.2433 10.75 18.1395 11.5743 20.0358C10.75 21.932 10.0288 23.7925 9.51358 25.5814C4.77396 24.1503 1.92332 22.0036 1.92332 20ZM11.7117 37.6386C10.3035 36.78 9.82268 34.1324 10.4066 30.3757C10.5096 29.6243 10.6813 28.8372 10.8874 28.0143C12.6733 28.4436 14.5623 28.7299 16.5543 28.9088C17.722 30.6261 18.9241 32.1646 20.1262 33.5599C17.5847 36.1717 15.0088 37.9606 12.9137 37.9606C12.4673 37.9606 12.0551 37.8533 11.7117 37.6386ZM32.5935 30.3757C33.1773 34.1324 32.6965 36.78 31.2883 37.6386C30.9449 37.8533 30.5327 37.9606 30.0863 37.9606C28.0256 37.9606 25.4497 36.2075 22.8738 33.5599C24.0759 32.2004 25.278 30.6261 26.4457 28.9088C28.4377 28.7299 30.3267 28.4079 32.1126 28.0143C32.3187 28.8372 32.4561 29.6243 32.5935 30.3757V30.3757ZM35.6845 24.7943C34.9976 25.0805 34.242 25.3309 33.4864 25.5456C32.9369 23.7567 32.25 21.8605 31.4257 19.9642C32.25 18.068 32.9712 16.2075 33.4864 14.4186C38.226 15.8497 41.0767 17.9964 41.0767 20C41.0767 21.6816 39.0847 23.4705 35.6845 24.7943Z" fill="black"/>
</svg>
