<svg width="36" height="36" viewBox="0 0 36 36" fill="none" xmlns="http://www.w3.org/2000/svg">
<path d="M0 18V36H36V0H0V18ZM29.0102 16.56C29.8725 16.7601 30.6561 17.2111 31.2624 17.856C31.5961 18.2035 31.8863 18.5903 32.1264 19.008C32.1264 19.0541 30.5712 20.1053 29.6237 20.6928C29.5891 20.7158 29.4509 20.5661 29.2982 20.3386C29.1253 20.0401 28.8795 19.7903 28.5839 19.6125C28.2882 19.4348 27.9524 19.3348 27.6077 19.3219C26.5162 19.247 25.8134 19.8202 25.8192 20.7619C25.8102 20.9964 25.8639 21.229 25.9747 21.4358C26.2138 21.9341 26.6602 22.2307 28.0598 22.8355C30.6374 23.9443 31.7405 24.6758 32.4259 25.7155C33.192 26.8675 33.3619 28.728 32.8435 30.1046C32.2675 31.6022 30.8563 32.6189 28.8605 32.9558C27.9489 33.0602 27.0279 33.0506 26.1187 32.927C24.7312 32.7019 23.4512 32.0413 22.464 31.0406C22.1328 30.6749 21.4877 29.7216 21.528 29.6525C21.6331 29.5744 21.7438 29.5042 21.8592 29.4422L23.184 28.6819L24.2179 28.0829L24.4339 28.4026C24.7985 28.924 25.2624 29.3683 25.799 29.7101C26.951 30.3149 28.5235 30.2314 29.3011 29.5315C29.5622 29.2751 29.7251 28.9352 29.7614 28.571C29.7977 28.2069 29.7051 27.8415 29.4998 27.5386C29.2118 27.1382 28.6358 26.8013 27.0259 26.0986C25.1683 25.2979 24.3677 24.8026 23.6362 24.0134C23.1795 23.4927 22.8423 22.8783 22.6483 22.2134C22.5036 21.4538 22.4822 20.6759 22.585 19.9094C22.968 18.1152 24.313 16.8624 26.2771 16.4909C27.1867 16.3783 28.1081 16.4036 29.0102 16.5658V16.56ZM20.5603 18.0691V19.5437H15.8861V32.8579H12.5712V19.5408H7.88544V18.1008C7.87286 17.6051 7.88632 17.109 7.92576 16.6147C7.94304 16.5917 10.8058 16.5802 14.2618 16.5859H20.543L20.5603 18.0691Z" fill="black"/>
</svg>
